<?xml version="1.0" encoding="utf-8"?>
<!-- Generator: Adobe Illustrator 19.2.1, SVG Export Plug-In . SVG Version: 6.00 Build 0)  -->
<svg version="1.1" id="_x31_170px_grid" xmlns="http://www.w3.org/2000/svg" xmlns:xlink="http://www.w3.org/1999/xlink" x="0px"
	 y="0px" viewBox="0 0 1170 769" style="enable-background:new 0 0 1170 769;" xml:space="preserve">
<style type="text/css">
	.st0{fill:#333333;}
</style>
<g>
	<path class="st0" d="M390.2,704.6c3.7-4.1,9-5.7,13.7-8.3c5.7-3.2,11.7-5.8,17.6-8.7c0.6-0.3,1.3-0.7,1.8-1.1
		c1-0.9,1.9-2.2,1.1-3.4c-0.8-1.2-2.2-0.1-3.1,0.3c-5.9,2.7-11.9,5.4-18,7.7c3.8-3.3,8.5-5.3,13.1-6.7c10.3-3,12.4-10.4,12.4-19.6
		c0-9.6,0.1-9.7-9-6.1c-5.5,2.2-11.5,3.3-16.8,6.1c-2.8,1.5-5.9,2.7-7,6.1c-0.4,1.2-1.2,2.3-2.5,1.6c-1.6-0.8-1-2.3-0.2-3.4
		c2-2.3,3.6-4.7,6.7-6c8.3-3.5,16.6-7.1,25.3-9.7c3.4-1,4.7-2.9,4.4-6.3c-0.2-3.3-0.3-6.6-0.8-9.9c-0.5-2.7-0.9-5.1-5.1-4
		c6.1-3.1,2.4-7,1.6-10.5c-0.9-3.7-3.9-3.2-6.7-2.8c-12.8,1.8-25.7,3.6-38.5,5.5c-5.4,0.8-6.3,2.6-4.2,7.7c0.5,1.2,0.8,2.4,1.2,3.7
		l0,0c-2.6-1.4-3.5-4.2-3.8-6.5c-0.4-3.7-2.5-3.2-4.9-2.9c-15.1,1.9-29.8,5.5-44.8,7.7c-11.5,1.7-22.6,5.5-34.5,4.7
		c4.8-1.2,9.6-2.4,14.4-3.4c22.1-4.6,44.3-9,66.6-12.6c2.8-0.5,3.3-1.2,1.5-3.4c-0.8-0.9-1.6-1.8-2-2.8c-2.8-7.2-8.1-7.8-14.6-6.1
		c-2.9,0.8-6,0.9-9.1,1.3c-1.3,0.2-2.6,0.2-3.5-1c-1.1-1.4-0.2-2.6,0.6-3.5c11.7-14.7,22.5-30.8,43.8-33.5c-41-3-81.8-2.5-122.4,4.4
		c28.6-1.7,57.1,0.6,85.5,2.1c0.3,1.2-0.4,1.8-1.1,2.3c-11,6.9-20.5,15.7-30.6,23.8c-2.8,2.2-3,2.2-6.2,1.3
		c5.5-1.1,8.7-5.4,12.4-8.9c3.4-3.2,9.3-4.7,9.5-10.9c0.9-0.6,4.1,3.1,3.3-1.4c-0.2-1-2.3-1.6-2.9-4.5c4,4,7.5,5.4,10.4,0.4
		c-0.5-1.3-1.6-1-2.6-1c-13.5-0.3-27.1-0.6-40.6-0.9c-2.3-0.1-4.4,0-6.1,3.9c0.2-4.9-2.3-4.5-4.4-4.5c-2.2-0.1-3.3,0.9-4.1,3
		c-1.7,4.6-3.7,9-5.9,13.4c0.3-4,2.2-7.4,3.7-11c2-4.8,1.5-5.5-3.7-5.5c-4.1,0-8.2,0-12.2,0.1c-8.7,0.2-15.1,5.7-22,9.8
		c-2.2,1.3-4.2,2.8-6.5,3.8c4.4-5,10.8-7.4,16.6-11.7c-5.9-1.3-10.5,0.6-15.1,2.2c-11.4,4-22.5,9-33.1,14.8
		c-12.4,6.8-25.8,9.7-39.4,12c-4.8,0.8-9.7,1.6-14.3,3.5c26.1-1.7,51.9,0.7,77.2,6.3c11,2.4,20.9,2.5,31.6-0.9
		c12.5-4,25.4-6.5,38.3-8.8c1.6-0.3,3.1-0.8,4.3-1.9c1.1-1,2.1-0.7,3.1,0.7c-5.6,3.3-12.1,3.9-18.1,5.5c-10.7,2.8-21.5,5.4-32.2,8.2
		c-1.1,0.3-3,0.2-3,1.9c0,1.3,1.7,1.3,2.7,1.8c3.5,1.5,6.9,3.3,10.5,4.4c10.9,3.5,14.9,11.5,15.5,22.1c0.5,8.6,1.2,17.3,1.9,25.9
		c0.5,6.2,4,9.6,10.2,9.4c9.7-0.2,18.9-3.2,28.4-4.7c8.7-1.4,17.2-3.7,26.1-3c3.4,0.3,4.5-2,6-4c-0.6,3.2-0.7,6.6-5.5,6.3
		c-1.3-0.1-2,1.6-2.8,2.5c-2.9,3.3-5.3,3.3-7.5-0.3c-1.5-2.5-3.4-1.8-5.3-1.5c-11.6,2-23.3,4.1-34.9,6c-2.3,0.4-4.7,0.6-7,0.5
		c-4.7-0.2-8.4-3.4-8.9-7.9c-0.8-6.9-1.1-13.8-1.7-20.7c-0.7-7.4-0.9-7.7-8.4-7.7c-8.9,0-17.8-0.1-26.7,0c-1.5,0-3.2-0.5-5.1,1.2
		c4.5,0.3,8.5,0.6,12.4,0.8c3.9,0.2,7.8,0.4,11.8,1.4c-6.1,0-12.2,0.3-18.2-0.1c-5.1-0.4-8.8,0.8-10.4,6.1c-0.1-5.9-0.1-6-6.1-6
		c-14.1,0.1-28.2-1.9-42.3-2c-1,0-2.3,0.1-2.3-1.3c-0.1-1.1,1.1-1.2,1.9-1.3c4.3-0.5,8.6-0.9,12.9-1.4c0,0.2,0.1,0.3,0.1,0.5
		c-1.8,0.4-3.5,0.9-5.3,1.3c13.8,1.4,27.6,2.6,42.5,2.1c-2.6-1.9-4.4-1.5-6-1.4c-8,0.2-14.5-2.6-19.1-9.1c-0.8-1.2-1.8-2.3-2.7-3.4
		c-0.4-0.5-1.3-1.6-1.6-1.1c-2.6,3.7-3.1-0.4-3.7-1.2c-1.8-2.3-3.1-4.9-4.4-7.4c-0.7-1.4-1.9-2.8-0.7-4.4c1.1-1.4,2.6-0.7,4.1-0.7
		c6.5,0.1,13,0,20.4,0c-13.4-2.4-26.1-3.6-38.9-4.5c-12.9-0.9-25.9-1.5-38.9-1.1c-1.7,0.1-3.8-0.2-4.1,2.2
		c-0.8,6.1-3.7,11.6-5.9,17.2c-1.7,4.3,0,8,5.1,9.4c-1.4,1.1-2.8,1.6-4.2,1.3c-3.6-0.7-6.3-0.3-6.1,4.2c-2.3-0.8-0.6-3.5-3.1-4.5
		c0,2.8,0,5.2,0,7.6c0,1.4-0.5,3.3,1.4,3.7c2.7,0.5,0.4-2.7,2.4-3.3c0.5,2,1.2,3.9,1.5,5.9c0.7,5,3.5,6.9,8.5,7.4
		c14.2,1.7,28.3,3.8,42.6,4.9c12.6,1,25.3,2,37.9,2.8c7.5,0.5,9.7-1.4,11.7-8.7c0.7-2.6,0.6-5.5,2.6-7.7c-0.2,4.9-1.2,9.7-2.8,14.4
		c-0.9,2.6-2.3,3.6-5,3.5c-12.4-0.5-24.8-0.7-37.1-1.5c-17-1.1-33.9-3.2-50.8-5.6c-4.8-0.7-8.5-2.1-8.6-7.8c0-1.2-0.6-2.3-2.1-2.3
		c-1.8,0-3,1-3.5,2.7c-1.1,3.6-2.8,6.8-5.2,9.7c-0.1-3,2-5.2,2.7-7.8c0.6-1.9,1.9-3.9,1.8-5.7c-0.8-9.5,2.6-18.4,3.6-27.6
		c0.1-1.1,0.1-2.5,0.8-3.3c3.7-4.3,5.6-9.6,8.3-14.4c2.1-3.7,6.8-4.2,10.6-5.3c10.5-3,21.2-5.1,32.1-6.7c6.8-1,13.2-3.3,19.4-6.5
		c16-8.1,31.8-16.7,49.2-21.4c14.4-3.8,29.3-5,44.1-6.4c13.6-1.3,27.3-2.2,41-2.6c19.8-0.4,39.6,1.2,59.3,3.4
		c14.2,1.6,25.1,8.6,35.4,17.4c1.3,1.1,2.7,2.2,4,3.4c1.9,1.8,3.1,2.1,5.2-0.3c3-3.5,11.6-1.7,13.9,2.4c1.1,1.9,0,2.9-1.3,4
		c-1.5,1.1-3.4,0.8-5.4,1.7c2.3,2.2,5.1,3.3,7.6,4.8c2.7,1.7,5.7,3.1,6.3,6.7c-2.7-1-3.7-4.1-6.5-5c-1-0.3-2.2-1.5-3.1-0.1
		c-0.7,1,0.6,1.8,1.2,2.5c1.4,1.6,2.8,3.4,5.3,3.4c-1.5,2.1-0.6,4.1,0.3,6c0.9,1.9,0.8,3.9,0.9,6c0.1,2.7,0.6,5.1,3.4,7.4
		c1.1-4,1.6-7.8,3.6-11c3.9,1.8,2.3,4-0.8,7.2c4.8-2.5,6.2-1.1,7.1,2.5c3.6,15.5,4.5,31.1,1.9,46.8c-0.3,1.7-0.6,3.4-1.3,5
		c-1.3,3-2.4,5.3-6.9,3.2c-3.9-1.9-8.5-2.5-13.2-1.5c-3.8,0.8-7.1-1.2-8.9-4.8c-0.7-1.4-1.3-2.5-3.2-1.5
		c-9.6,5.2-19.5,9.6-29.8,14.3c1.9,0.9,3.3,0.3,4.7,0.1c1.1-0.2,2.3-1.2,3,0.3c0.6,1.3-0.3,2.2-1.2,3c-2.1,1.9-5.9,1.6-7,5.1
		c-0.1,0.5-1.1,0-1-0.8c0.3-2.4-0.7-0.9-1.5-0.5c-4.4,2.4-8.9,4.8-13.4,7.2c-0.5,0.3-1.1,0.4-1.9-0.2c0.4-1.3,0.8-2.8,1.2-4.3
		C393.1,703.2,391.7,704.5,390.2,704.6L390.2,704.6z M459.4,670.7c-3,2.6-6.8,3.8-10.3,5.5c-2,1-2.4,2.2-1.3,4.1
		c1.4,2.7,3.3,4.4,6.6,3.6c2.9-0.7,5.8-0.3,8.6,0.4c5.4,1.3,5.4,1.3,4.2-3.9c-0.4-1.5-0.7-3.1-0.9-4.7
		C465.2,669.5,465.2,669.5,459.4,670.7c4.5-2,5.5-5.5,5.3-10.2c-0.1-2.8-1.4-5.2-1.7-7.7c-0.3-3.4,0.4-6.9,0.3-10.4
		c-0.1-2,1-4.5-2.3-6.7c0,3.9,0,7,0,10.1c0,0.9-0.4,2.9-1.2,2c-2.5-2.5-4.2,0.4-6.2,0.5c-6.9,0.5-13.2,3.6-19.7,5.5
		c-2,0.6-3.4,1.7-3.3,4c0.3,5.8-0.8,11.5-1.8,17.2c-0.5,2.8,0.3,3.3,2.9,2c7.4-3.8,14.9-7.4,22.4-10.8c2.5-1.1,3.3-2.7,3.7-5.2
		c0.6-3.3,0.1-6.8,1.9-11.1c1.3,6-0.2,10.7-0.4,15.4c0,0.8-0.8,1.4-1.8,1.6c-7.6,1.5-13.7,6.2-20.7,9.1c-3,1.3-6.3,2.4-8.8,4.7
		c-0.9,0.8-1.9,1.8-1.1,3c0.8,1.2,1.9,0,2.7-0.4c6-2.9,11.9-6,18.1-8.7C451.4,673,454.8,669.9,459.4,670.7z M401.2,577.4
		c0.8,1.6,1.1,2.4,1.6,3.1c3.9,5.6,7.1,11.6,9.9,17.8c0.4,0.9,1.5,2.4,0.2,3.1c-1.9,1-1.3-1.3-1.9-2c-1-1.2-2.1-2.4-2.5-4
		c-2.1-6.8-6.6-12.1-11.2-17.4c-1.1-1.2-2.4-1.6-3.9-1.4c-6.6,0.9-13.3,1.8-19.4,4.7c-1.5,0.7-3,1.5-3.1,3.3
		c-0.1,4.1-3.3,8.2-0.4,12.4c0.8,1.2-0.7,0.8-1,1.2c-2.2,2.3-2.8,5.5-2,8c0.7,2.3,3.8,0.9,5.9,0.8c7.8-0.7,15.6-1.6,23.5-2.3
		c12.6-1.1,25.2-2.1,37.9-3.2c0.9-0.1,2.3,0.2,2.4-1.2c0.1-1-0.9-1.4-1.6-1.9c-5.4-4.1-10.7-8.5-16.4-12.2
		C413.9,582.7,408.5,579.3,401.2,577.4z M433.2,631.3c-1.4,1-3.3,1.2-3.2,3.6c0.3,4.3,0.4,8.7,0.4,13c0,2.8,1.1,3.5,3.8,2.7
		c8-2.2,15.8-5.1,24-6.4c1.3-0.2,1.6-0.9,1.9-2c1.9-8.1-1.4-12.6-9.7-13.2c-0.2,0-0.4-0.3-0.7-0.5c2.4-0.4,4.6-1.2,7-0.8
		c1.1,0.2,2,0,2.3-1.3c1.3-5-3.3-10.7-8.4-10.2c-7,0.7-13.9,1.7-20.8,2.6c-1,0.1-2,0.2-2.4,1.5C426.7,623.1,430.4,630.4,433.2,631.3
		z M423.9,616.7c-3.2-3.8-5.9-7-8.6-10.1c-0.9-1-2.2-1.4-3.6-1.3c-13.4,1.4-26.9,2.8-40.3,4.1c-3,0.3-3.4,1.9-2,4.2
		c1.3,2.2,2.9,4.3,4.1,6.6c1.2,2.4,2.9,2.7,5.4,2.3c8-1.2,16.1-2.2,24.2-3.2C409.7,618.5,416.4,617.6,423.9,616.7z M244.8,652
		c1.1,0.7,1.5,1.1,1.8,1.1c10.3,0.1,20.7,0.2,31,0.2c3,0,3.1-1.9,2.7-4.2c-1.4-6.7-7.1-8.2-12.4-10.2c-1.7-0.7-3.2-0.6-4.9,0.6
		c-4.2,3.1-8.8,4.4-14,2.8c-1.6-0.5-3.5-1-4.3,1.4c-0.9,2.5,0.4,3.9,2.4,4.8c2.1,1,4.3,1.7,6.9,2.6
		C250.9,652.6,248.2,650.7,244.8,652z M222.6,636.1c-2,1.7-3.6,0.9-5.1,0.9c-1,0-2.3-0.2-2.5,1.1c-0.2,1.1,0.8,1.9,1.7,2.3
		c1,0.4,2.2,0.7,3.3,0.8c5.2,0.5,10.5,0.5,15.6,1.5c4.2,0.8,8.3,3.1,6.8-4.3c0-0.1,0.3-0.4,0.6-0.6c1.6-0.8,2.9-2.2,2.2-3.7
		c-0.6-1.3-2.8-1.3-4.4-1.5c-1.4-0.1-2.9-0.4-4.3-0.6c-7.5-0.6-15-2.4-22.6-2c-2.2,0.1-4.7-0.1-4.8,3c-0.1,3.4,2.5,2.8,4.7,2.8
		C216.5,636.1,219.3,636.1,222.6,636.1z M454,613.9c-3.6-5.8-5.6-7.1-11.4-7.9c-1.1-0.1-2.3-0.7-3.1-1.4c-1.5-1.4-3.1-1.4-4.9-1.3
		c-3.6,0.3-7.2,0.5-10.8,0.9c-1.8,0.2-4.3-0.2-5.1,1.5c-0.6,1.5,1.5,2.9,2.5,4.3c1.1,1.6,2.3,3,3.3,4.6c0.9,1.4,1.9,2,3.6,1.8
		C436.5,615.6,445,614.8,454,613.9z M145.8,618.2c0,0.4,0,0.9-0.1,1.3c11.1-0.2,22.1-0.3,33.1,0.8c19.1,1.8,38.3,3.5,57.1,8.1
		c3.2,0.8,6.6,1.1,9.9,1.5c1,0.1,2.3,0,2.4-1.3c0.1-1.1-1.1-1.2-1.9-1.4c-4.1-1-8.2-2.1-12.3-3c-22.2-4.7-44.7-6.4-67.3-6.9
		C159.7,617.2,152.7,617.9,145.8,618.2z M469.7,633.1c-3.3,16.5-3.5,33,1.1,49.3C475.8,665.9,475,649.5,469.7,633.1z M348.4,610
		c5.7-0.8,10.2-1.3,14.7-2c2-0.3,2.4-1.8,2.5-3.5c0.5-5.6,0.9-11.2,1.4-16.8c0.1-0.7,0.3-1.6-0.6-1.8c-0.6-0.1-1.4,0.4-1.9,0.8
		c-6.6,5.9-12,12.8-16.6,20.3C346.8,608.9,347.2,610.1,348.4,610z M215.3,642.3c5.1,8.6,16.8,13.4,24.8,10.8
		c2.2-0.7,2.7-3.1,0.7-4.7c-1.2-1-2.8-1.5-4.2-2.3C230.2,642.5,222.9,644.8,215.3,642.3z M262.4,637.2c-4.1-1.6-7.7-2.3-11.4-2.9
		c-2.8-0.5-3.6,1.3-4,3.4c-0.5,2.4,1.3,3,3.1,3.3C254.5,641.7,258.6,641.1,262.4,637.2z"/>
	<path class="st0" d="M198.5,694.3c-2,1-4.5,0.8-2,2.8c6.7,5.4,11.3,12.9,19.1,17c1.7,0.9,0.5,3.2,2,4.4c-4.5-2.5-7.6-6.3-11.2-9.6
		c-3.5-3.2-7-6.4-11-9.3c0.1,4.8-3,9.8,2.1,13.9c-4.8,1.4-9-0.1-13.4-1.4c1.1-1,2.1-0.6,3-0.3c2.8,0.8,4.1-0.4,4.5-3.1
		c0.2-1.1,0.3-2.3,0.5-3.4c1.1-6.4,0-8.1-6.5-7.3c-8,0.9-15.6-1.5-23.5-1.7c-5.5-0.1-11.1-0.8-16.5-1.4c-3.1-0.4-4.1,0.8-4.6,3.6
		c-0.4,2.3,0,4.9-2.6,6.7c0.6-3.9,1.1-7.7,1.7-11.5c-1.9-0.9-2.8,0.4-3.6,1.2c-3.3,3.5-6.6,7-9.4,10.8c-2.7,3.6-1.9,7.6,1.6,10.8
		c0.5,0.4,1.2,1.4,1.7,0.3c1.8-3.4,4.6-1.7,7-1.5c4.8,0.5,9.5,1.4,14.3,1.6c-5.5-1.2-11.1-2.5-16.6-3.7c0.1-0.3,0.1-0.6,0.2-0.9
		c6.1,1,12.3,1.9,18.4,2.9c28.9,4.8,58,8.2,87.2,11c16.8,1.6,33.7,3.3,50.6,3.4c10.7,0,21.2-1.4,31.8-2.6c0.5-0.1,1,0,1.6,0.2
		c-6,2.5-12.4,2.8-18.7,3.4c-22.3,2.2-44.6-0.1-66.8-2.1c-15.4-1.4-30.7-3.1-46.2-4.2c11.3,1.5,22.5,3.3,33.8,4.4
		c21,2,41.7,6.9,61.3,15.2c3.7,1.5,7.8,0.5,11.7,0.3c1.9-0.1,3.7-0.5,6.1,0.2c-1.7,1.6-3.4,1.1-4.8,1.1c-15.3,0.7-30.6-0.2-45.8-1.9
		c-1.3-0.1-2.5-0.4-3.8,0.4c-5.3,3.7-11.2,3.6-16.1,0.3c-7.9-5.3-16.9-7-25.5-8.5c-14.9-2.6-29.9-5-44.9-7.4c-0.4-0.1-0.8-0.4-1-1.2
		c6.4,1,12.9,2,19.3,3.1c13.8,2.3,27.6,4.7,41.5,6.4c2.2,0.3,4.2,0.6,5.7-1.8c0.9-1.6,2.9-1.8,4.7-1.7c5.1,0.1,9.8,1.4,13.8,4.7
		c1.1,0.9,2.1,4.1,3.7,4.2c8.9,0.1,17.6,2.2,26.8,1.9c-0.5-1.3-1.5-1.3-2.3-1.6c-15-5.7-30.7-10-46.6-11.4c-24.3-2.2-48.3-6-72.3-10
		c-7-1.2-14-2.4-21.9-3.8c2.1,2.5,3.8,4.4,5.3,6.4c0.8,1,1.3,2.5,0.5,3.7c-1,1.3-2.5,0.7-3.6,0.2c-1.2-0.4-2.6-0.9-3.4-1.8
		c-4-4.6-9.4-8-12.4-13.6c-0.7-1.4-1.8-2.9-1.5-4.5c1.5-7.7,0.3-15.3-0.4-22.9c-0.4-4.1,1.1-5,5-4.1c25.8,5.4,52,6.9,78.2,8.4
		c19.1,1.1,38.1,1.8,57.2,2.7c0.5,0,1,0.1,1.5,0.8c-8.4,0-16.9,0.5-25.2-0.1c-10.6-0.9-21.3-0.5-31.9-1.2
		c-25.3-1.5-50.6-3.4-75.7-7.6c-7.5-1.3-7.6-1.2-6.4,6.1c0.4,2.7,0.8,5.4,1.3,8.8c1.2-3.2,2.1-5.8,3.2-8.3c1.3-3,3.7-4.4,7.1-3.7
		C155.8,690.2,176.6,692.2,198.5,694.3z"/>
	<path class="st0" d="M390.2,704.6c-1.8,7.5-1.2,15.2-2.4,22.8c-1.4,8.9-3.3,19.6-7.6,27.6c-0.8,1.5-1.8,3-2.9,4.3
		c-4.5,5.4-9.8,5-13.5-1c-4.6-7.5-5.9-17.9-7-26.4c-1.6-12-0.3-23.9,1.9-36.7c-1.7,2.4-1.5,4.3-1.9,6.1c-0.3,1.8-0.8,3.6-1.5,5.4
		c0-10.1,2.3-19.6,6.3-28.9c1.4-3.3,3.1-6.5,5.7-9.2c5.5-5.9,11.2-5.3,15.2,1.6c3.7,6.4,5.2,13.4,6.2,20.6
		C389.3,695.5,388.9,700.1,390.2,704.6L390.2,704.6z M378,746.7c1.3-2.4,1.3-6.1,0.5-7.9c-2.2-5-4.6-9.9-8.1-14.3
		c-2.2-2.7-4.2-5.5-7.1-9.4c6.7,2.3,12.3,0.8,17.7,1.8c2.2,0.4,3.4-0.1,3.6-2.4c0.2-2.4-1.2-3-3.3-2.9c-3.2,0.2-6.4,0.6-9.6,0.7
		c-1.2,0.1-2.9,1.2-3.4-0.5c-0.4-1.2-0.7-2.6,0.2-4.1c4.7-7.8,8.6-16,12-24.5c1.2-3,0.6-4.3-1.3-6.9c-4.8,12.7-10.4,24.4-18,35.2
		c4.7-6.1,3-12.5,1.3-19.3c-4.4,12.7-4.5,25.3-3.4,38.1c0.3-2.7,0.2-5.4,1.2-8c0.4-1.2,1-2.1,2.4-2.3c1.5-0.2,1.8,1,2.3,2.1
		C369,729.7,374.2,738.4,378,746.7z M366.4,749c1.7-3.3,4.6-8.2,4.6-11.9c0-3.8-2.9-6.8-6-10.5c-0.2,6.4-0.6,13.8-2,18.9
		c-1.4,5,0.5,8.7,3,12.5c1.5,2.3,3.7,3.8,6.7,2.4c2.6-1.2,7.1-7.4,6.1-8.8c-2.2-3.3-3.3-9.3-6.4-12.3
		C370.3,741.9,369.7,747.4,366.4,749z M383.5,685c-0.4-0.1-0.8-0.1-1.2-0.2c-1.4,3-2.7,6-4.3,8.8c-2.8,4.7-1.2,9.7-0.5,14.3
		c0.5,3.2,5.1,1.6,7.5,3.2c0.4,0.3,0.9,0.9,1.5,0C386.7,702.3,386.1,693.5,383.5,685z M386.6,718.5c-1.8,0.6-3.3,1.2-4.8,1.6
		c-6.3,1.8-7.7,4.7-5,10.9c1.7,3.8,3.4,9.7,5.3,14.1C384.5,736.8,385.7,726.9,386.6,718.5z M366.9,699.9c1.5-3.4,3.1-6.7,4.5-10.2
		c1-2.5-1-7.1-3.4-8.4c-1.1-0.6-2.1-0.5-2.5,0.6c-1,2.3-2.8,4.5-1.8,7.3C365,692.6,365.5,696.2,366.9,699.9z"/>
	<path class="st0" d="M201.7,604.9c33.9-1.6,67.6,0.1,101.3,3.5C269.2,607.6,235.4,606,201.7,604.9z"/>
	<path class="st0" d="M377,636.9c3.7,1.8,4.3,5.1,5.4,8.8c3.6,12.9,7.8,25.7,10,39c0.7,4.6,0.4,9.1-1.5,13.4
		c-0.4-7.5-0.9-14.9-2.5-22.2c-2.2-10.3-4.3-20.6-8.5-30.4c-0.7-1.7-1.3-3.7-3.9-2.9c-2.8,0.8-1.3,2.7-1.2,4.2
		c-3.2-2.3-3.4-3.3-0.4-5C376.5,640.7,376.7,638.9,377,636.9L377,636.9z"/>
	<path class="st0" d="M252.2,715.4c3.6-0.8,7,0.5,10.4,0.4c14.6-0.5,29.1,0.7,43.7,1c7.2,0.1,14.6,0.8,21.3,4c1.6,0.7,3.7,1.3,3.3,4
		c-10.6-7.4-22.7-6.4-34.3-7.1c-13.6-0.9-27.4-0.7-41-1.1C254.4,716.6,253.1,717,252.2,715.4z"/>
	<path class="st0" d="M156.9,647.1c3.5-1.3,7.1-0.5,10.7-0.7c1.6-0.1,3.3,0.1,4.3-1.6c0.5-0.9,1.1-1.9,0.3-2.8
		c-1.5-1.6-1.1,0.8-1.9,1c-3.4,0.8-6.9-1.4-10.2,0.8c-0.4,0.3-0.8-0.6-1-1.2c-1.3-3.8,2.1-8.9,6.2-9.2c0.7-0.1,1.5,0,2.2,0
		c8.3,0.5,10.6,4.7,6.5,12c-0.9,1.6-2.1,2.9-4,2.9c-4.3,0.1-8.7,0-13,0C156.9,648,156.9,647.5,156.9,647.1z"/>
	<path class="st0" d="M202.7,673.6c-7.4,1-14.8,1-22.2,0.3c-13-1.2-26-2.5-39.1-3.9c-1.3-0.1-3.6,0.2-3.4-1.7c0.3-2.2,2.6-1.3,4-1.1
		c18.4,2.8,37,4,55.6,5.3C199.3,672.7,201,673.2,202.7,673.6z"/>
</g>
</svg>
