<svg id="_1170px_grid" data-name="1170px grid" xmlns="http://www.w3.org/2000/svg" viewBox="0 0 356.85 192.95"><defs><style>.cls-1{fill:#333;}</style></defs><title>s1_car_b</title><path class="cls-1" d="M390.2,704.6c3.7-4.1,9-5.7,13.7-8.3,5.7-3.2,11.7-5.8,17.6-8.7a10.82,10.82,0,0,0,1.8-1.1c1-.9,1.9-2.2,1.1-3.4s-2.2-.1-3.1.3c-5.9,2.7-11.9,5.4-18,7.7a35.49,35.49,0,0,1,13.1-6.7c10.3-3,12.4-10.4,12.4-19.6,0-9.6.1-9.7-9-6.1-5.5,2.2-11.5,3.3-16.8,6.1-2.8,1.5-5.9,2.7-7,6.1-0.4,1.2-1.2,2.3-2.5,1.6-1.6-.8-1-2.3-0.2-3.4,2-2.3,3.6-4.7,6.7-6,8.3-3.5,16.6-7.1,25.3-9.7,3.4-1,4.7-2.9,4.4-6.3s-0.3-6.6-.8-9.9c-0.5-2.7-.9-5.1-5.1-4,6.1-3.1,2.4-7,1.6-10.5-0.9-3.7-3.9-3.2-6.7-2.8-12.8,1.8-25.7,3.6-38.5,5.5-5.4.8-6.3,2.6-4.2,7.7,0.5,1.2.8,2.4,1.2,3.7h0c-2.6-1.4-3.5-4.2-3.8-6.5-0.4-3.7-2.5-3.2-4.9-2.9-15.1,1.9-29.8,5.5-44.8,7.7-11.5,1.7-22.6,5.5-34.5,4.7,4.8-1.2,9.6-2.4,14.4-3.4,22.1-4.6,44.3-9,66.6-12.6,2.8-.5,3.3-1.2,1.5-3.4a10.35,10.35,0,0,1-2-2.8c-2.8-7.2-8.1-7.8-14.6-6.1-2.9.8-6,.9-9.1,1.3-1.3.2-2.6,0.2-3.5-1-1.1-1.4-.2-2.6.6-3.5,11.7-14.7,22.5-30.8,43.8-33.5-41-3-81.8-2.5-122.4,4.4,28.6-1.7,57.1.6,85.5,2.1a2,2,0,0,1-1.1,2.3c-11,6.9-20.5,15.7-30.6,23.8-2.8,2.2-3,2.2-6.2,1.3,5.5-1.1,8.7-5.4,12.4-8.9,3.4-3.2,9.3-4.7,9.5-10.9,0.9-.6,4.1,3.1,3.3-1.4-0.2-1-2.3-1.6-2.9-4.5,4,4,7.5,5.4,10.4.4-0.5-1.3-1.6-1-2.6-1l-40.6-.9c-2.3-.1-4.4,0-6.1,3.9,0.2-4.9-2.3-4.5-4.4-4.5s-3.3.9-4.1,3a132.88,132.88,0,0,1-5.9,13.4c0.3-4,2.2-7.4,3.7-11,2-4.8,1.5-5.5-3.7-5.5-4.1,0-8.2,0-12.2.1-8.7.2-15.1,5.7-22,9.8a61.12,61.12,0,0,1-6.5,3.8c4.4-5,10.8-7.4,16.6-11.7-5.9-1.3-10.5.6-15.1,2.2a222.84,222.84,0,0,0-33.1,14.8c-12.4,6.8-25.8,9.7-39.4,12-4.8.8-9.7,1.6-14.3,3.5a273.8,273.8,0,0,1,77.2,6.3c11,2.4,20.9,2.5,31.6-.9,12.5-4,25.4-6.5,38.3-8.8a8.41,8.41,0,0,0,4.3-1.9c1.1-1,2.1-.7,3.1.7-5.6,3.3-12.1,3.9-18.1,5.5-10.7,2.8-21.5,5.4-32.2,8.2-1.1.3-3,.2-3,1.9,0,1.3,1.7,1.3,2.7,1.8,3.5,1.5,6.9,3.3,10.5,4.4,10.9,3.5,14.9,11.5,15.5,22.1,0.5,8.6,1.2,17.3,1.9,25.9,0.5,6.2,4,9.6,10.2,9.4,9.7-.2,18.9-3.2,28.4-4.7,8.7-1.4,17.2-3.7,26.1-3,3.4,0.3,4.5-2,6-4-0.6,3.2-.7,6.6-5.5,6.3-1.3-.1-2,1.6-2.8,2.5-2.9,3.3-5.3,3.3-7.5-.3-1.5-2.5-3.4-1.8-5.3-1.5-11.6,2-23.3,4.1-34.9,6a33,33,0,0,1-7,.5,9,9,0,0,1-8.9-7.9c-0.8-6.9-1.1-13.8-1.7-20.7-0.7-7.4-.9-7.7-8.4-7.7-8.9,0-17.8-.1-26.7,0-1.5,0-3.2-.5-5.1,1.2,4.5,0.3,8.5.6,12.4,0.8a60.28,60.28,0,0,1,11.8,1.4c-6.1,0-12.2.3-18.2-.1-5.1-.4-8.8.8-10.4,6.1-0.1-5.9-.1-6-6.1-6-14.1.1-28.2-1.9-42.3-2-1,0-2.3.1-2.3-1.3-0.1-1.1,1.1-1.2,1.9-1.3,4.3-.5,8.6-0.9,12.9-1.4,0,0.2.1,0.3,0.1,0.5-1.8.4-3.5,0.9-5.3,1.3,13.8,1.4,27.6,2.6,42.5,2.1-2.6-1.9-4.4-1.5-6-1.4-8,.2-14.5-2.6-19.1-9.1-0.8-1.2-1.8-2.3-2.7-3.4-0.4-.5-1.3-1.6-1.6-1.1-2.6,3.7-3.1-.4-3.7-1.2a46.54,46.54,0,0,1-4.4-7.4c-0.7-1.4-1.9-2.8-.7-4.4,1.1-1.4,2.6-.7,4.1-0.7,6.5,0.1,13,0,20.4,0a359.87,359.87,0,0,0-38.9-4.5,387.85,387.85,0,0,0-38.9-1.1c-1.7.1-3.8-.2-4.1,2.2-0.8,6.1-3.7,11.6-5.9,17.2-1.7,4.3,0,8,5.1,9.4a5,5,0,0,1-4.2,1.3c-3.6-.7-6.3-0.3-6.1,4.2-2.3-.8-0.6-3.5-3.1-4.5v7.6c0,1.4-.5,3.3,1.4,3.7,2.7,0.5.4-2.7,2.4-3.3,0.5,2,1.2,3.9,1.5,5.9,0.7,5,3.5,6.9,8.5,7.4,14.2,1.7,28.3,3.8,42.6,4.9,12.6,1,25.3,2,37.9,2.8,7.5,0.5,9.7-1.4,11.7-8.7,0.7-2.6.6-5.5,2.6-7.7a51.05,51.05,0,0,1-2.8,14.4c-0.9,2.6-2.3,3.6-5,3.5-12.4-.5-24.8-0.7-37.1-1.5-17-1.1-33.9-3.2-50.8-5.6-4.8-.7-8.5-2.1-8.6-7.8a2,2,0,0,0-2.1-2.3,3.44,3.44,0,0,0-3.5,2.7,27.62,27.62,0,0,1-5.2,9.7c-0.1-3,2-5.2,2.7-7.8,0.6-1.9,1.9-3.9,1.8-5.7-0.8-9.5,2.6-18.4,3.6-27.6,0.1-1.1.1-2.5,0.8-3.3,3.7-4.3,5.6-9.6,8.3-14.4,2.1-3.7,6.8-4.2,10.6-5.3a247.1,247.1,0,0,1,32.1-6.7,61.72,61.72,0,0,0,19.4-6.5c16-8.1,31.8-16.7,49.2-21.4,14.4-3.8,29.3-5,44.1-6.4,13.6-1.3,27.3-2.2,41-2.6,19.8-.4,39.6,1.2,59.3,3.4,14.2,1.6,25.1,8.6,35.4,17.4,1.3,1.1,2.7,2.2,4,3.4,1.9,1.8,3.1,2.1,5.2-.3,3-3.5,11.6-1.7,13.9,2.4,1.1,1.9,0,2.9-1.3,4-1.5,1.1-3.4.8-5.4,1.7,2.3,2.2,5.1,3.3,7.6,4.8,2.7,1.7,5.7,3.1,6.3,6.7-2.7-1-3.7-4.1-6.5-5-1-.3-2.2-1.5-3.1-0.1-0.7,1,.6,1.8,1.2,2.5,1.4,1.6,2.8,3.4,5.3,3.4-1.5,2.1-.6,4.1.3,6s0.8,3.9.9,6c0.1,2.7.6,5.1,3.4,7.4,1.1-4,1.6-7.8,3.6-11,3.9,1.8,2.3,4-.8,7.2,4.8-2.5,6.2-1.1,7.1,2.5a119.05,119.05,0,0,1,1.9,46.8,21.66,21.66,0,0,1-1.3,5c-1.3,3-2.4,5.3-6.9,3.2a20.34,20.34,0,0,0-13.2-1.5c-3.8.8-7.1-1.2-8.9-4.8-0.7-1.4-1.3-2.5-3.2-1.5-9.6,5.2-19.5,9.6-29.8,14.3,1.9,0.9,3.3.3,4.7,0.1,1.1-.2,2.3-1.2,3,0.3,0.6,1.3-.3,2.2-1.2,3-2.1,1.9-5.9,1.6-7,5.1-0.1.5-1.1,0-1-.8,0.3-2.4-.7-0.9-1.5-0.5-4.4,2.4-8.9,4.8-13.4,7.2a1.54,1.54,0,0,1-1.9-.2c0.4-1.3.8-2.8,1.2-4.3-2.9-.8-4.3.5-5.8,0.6h0Zm69.2-33.9c-3,2.6-6.8,3.8-10.3,5.5-2,1-2.4,2.2-1.3,4.1,1.4,2.7,3.3,4.4,6.6,3.6a17.87,17.87,0,0,1,8.6.4c5.4,1.3,5.4,1.3,4.2-3.9a35.5,35.5,0,0,1-.9-4.7c-1.1-6.2-1.1-6.2-6.9-5,4.5-2,5.5-5.5,5.3-10.2-0.1-2.8-1.4-5.2-1.7-7.7-0.3-3.4.4-6.9,0.3-10.4-0.1-2,1-4.5-2.3-6.7v10.1c0,0.9-.4,2.9-1.2,2-2.5-2.5-4.2.4-6.2,0.5-6.9.5-13.2,3.6-19.7,5.5-2,.6-3.4,1.7-3.3,4,0.3,5.8-.8,11.5-1.8,17.2-0.5,2.8.3,3.3,2.9,2,7.4-3.8,14.9-7.4,22.4-10.8,2.5-1.1,3.3-2.7,3.7-5.2,0.6-3.3.1-6.8,1.9-11.1,1.3,6-.2,10.7-0.4,15.4a1.93,1.93,0,0,1-1.8,1.6c-7.6,1.5-13.7,6.2-20.7,9.1-3,1.3-6.3,2.4-8.8,4.7-0.9.8-1.9,1.8-1.1,3s1.9,0,2.7-.4c6-2.9,11.9-6,18.1-8.7C451.4,673,454.8,669.9,459.4,670.7Zm-58.2-93.3a26.65,26.65,0,0,0,1.6,3.1,110.6,110.6,0,0,1,9.9,17.8c0.4,0.9,1.5,2.4.2,3.1-1.9,1-1.3-1.3-1.9-2a10.42,10.42,0,0,1-2.5-4c-2.1-6.8-6.6-12.1-11.2-17.4a4.21,4.21,0,0,0-3.9-1.4c-6.6.9-13.3,1.8-19.4,4.7-1.5.7-3,1.5-3.1,3.3-0.1,4.1-3.3,8.2-.4,12.4,0.8,1.2-.7.8-1,1.2a8.2,8.2,0,0,0-2,8c0.7,2.3,3.8.9,5.9,0.8,7.8-.7,15.6-1.6,23.5-2.3,12.6-1.1,25.2-2.1,37.9-3.2,0.9-.1,2.3.2,2.4-1.2,0.1-1-.9-1.4-1.6-1.9-5.4-4.1-10.7-8.5-16.4-12.2C413.9,582.7,408.5,579.3,401.2,577.4Zm32,53.9c-1.4,1-3.3,1.2-3.2,3.6,0.3,4.3.4,8.7,0.4,13,0,2.8,1.1,3.5,3.8,2.7,8-2.2,15.8-5.1,24-6.4,1.3-.2,1.6-0.9,1.9-2,1.9-8.1-1.4-12.6-9.7-13.2a2.31,2.31,0,0,1-.7-0.5c2.4-.4,4.6-1.2,7-0.8,1.1,0.2,2,0,2.3-1.3,1.3-5-3.3-10.7-8.4-10.2-7,.7-13.9,1.7-20.8,2.6-1,.1-2,0.2-2.4,1.5C426.7,623.1,430.4,630.4,433.2,631.3Zm-9.3-14.6c-3.2-3.8-5.9-7-8.6-10.1a4.28,4.28,0,0,0-3.6-1.3c-13.4,1.4-26.9,2.8-40.3,4.1-3,.3-3.4,1.9-2,4.2s2.9,4.3,4.1,6.6,2.9,2.7,5.4,2.3c8-1.2,16.1-2.2,24.2-3.2C409.7,618.5,416.4,617.6,423.9,616.7ZM244.8,652a7.14,7.14,0,0,0,1.8,1.1c10.3,0.1,20.7.2,31,.2,3,0,3.1-1.9,2.7-4.2-1.4-6.7-7.1-8.2-12.4-10.2a4.66,4.66,0,0,0-4.9.6c-4.2,3.1-8.8,4.4-14,2.8-1.6-.5-3.5-1-4.3,1.4s0.4,3.9,2.4,4.8a67.07,67.07,0,0,0,6.9,2.6C250.9,652.6,248.2,650.7,244.8,652Zm-22.2-15.9c-2,1.7-3.6.9-5.1,0.9-1,0-2.3-.2-2.5,1.1-0.2,1.1.8,1.9,1.7,2.3a12.25,12.25,0,0,0,3.3.8c5.2,0.5,10.5.5,15.6,1.5,4.2,0.8,8.3,3.1,6.8-4.3a1.62,1.62,0,0,1,.6-0.6c1.6-.8,2.9-2.2,2.2-3.7-0.6-1.3-2.8-1.3-4.4-1.5-1.4-.1-2.9-0.4-4.3-0.6-7.5-.6-15-2.4-22.6-2-2.2.1-4.7-.1-4.8,3-0.1,3.4,2.5,2.8,4.7,2.8A80.55,80.55,0,0,0,222.6,636.1ZM454,613.9c-3.6-5.8-5.6-7.1-11.4-7.9a5.88,5.88,0,0,1-3.1-1.4c-1.5-1.4-3.1-1.4-4.9-1.3-3.6.3-7.2,0.5-10.8,0.9-1.8.2-4.3-.2-5.1,1.5-0.6,1.5,1.5,2.9,2.5,4.3,1.1,1.6,2.3,3,3.3,4.6a3.35,3.35,0,0,0,3.6,1.8C436.5,615.6,445,614.8,454,613.9Zm-308.2,4.3a5.7,5.7,0,0,1-.1,1.3c11.1-.2,22.1-0.3,33.1.8,19.1,1.8,38.3,3.5,57.1,8.1a81.5,81.5,0,0,0,9.9,1.5c1,0.1,2.3,0,2.4-1.3,0.1-1.1-1.1-1.2-1.9-1.4-4.1-1-8.2-2.1-12.3-3-22.2-4.7-44.7-6.4-67.3-6.9C159.7,617.2,152.7,617.9,145.8,618.2Zm323.9,14.9c-3.3,16.5-3.5,33,1.1,49.3C475.8,665.9,475,649.5,469.7,633.1ZM348.4,610c5.7-.8,10.2-1.3,14.7-2,2-.3,2.4-1.8,2.5-3.5,0.5-5.6.9-11.2,1.4-16.8,0.1-.7.3-1.6-0.6-1.8a2.93,2.93,0,0,0-1.9.8A90,90,0,0,0,347.9,607C346.8,608.9,347.2,610.1,348.4,610ZM215.3,642.3c5.1,8.6,16.8,13.4,24.8,10.8,2.2-.7,2.7-3.1.7-4.7a28.2,28.2,0,0,0-4.2-2.3C230.2,642.5,222.9,644.8,215.3,642.3Zm47.1-5.1a53.06,53.06,0,0,0-11.4-2.9c-2.8-.5-3.6,1.3-4,3.4-0.5,2.4,1.3,3,3.1,3.3C254.5,641.7,258.6,641.1,262.4,637.2Z" transform="translate(-121.04 -570.14)"/><path class="cls-1" d="M198.5,694.3c-2,1-4.5.8-2,2.8,6.7,5.4,11.3,12.9,19.1,17,1.7,0.9.5,3.2,2,4.4-4.5-2.5-7.6-6.3-11.2-9.6a125.4,125.4,0,0,0-11-9.3c0.1,4.8-3,9.8,2.1,13.9-4.8,1.4-9-.1-13.4-1.4,1.1-1,2.1-.6,3-0.3,2.8,0.8,4.1-.4,4.5-3.1,0.2-1.1.3-2.3,0.5-3.4,1.1-6.4,0-8.1-6.5-7.3-8,.9-15.6-1.5-23.5-1.7-5.5-.1-11.1-0.8-16.5-1.4-3.1-.4-4.1.8-4.6,3.6-0.4,2.3,0,4.9-2.6,6.7,0.6-3.9,1.1-7.7,1.7-11.5-1.9-.9-2.8.4-3.6,1.2a119.13,119.13,0,0,0-9.4,10.8c-2.7,3.6-1.9,7.6,1.6,10.8,0.5,0.4,1.2,1.4,1.7.3,1.8-3.4,4.6-1.7,7-1.5,4.8,0.5,9.5,1.4,14.3,1.6-5.5-1.2-11.1-2.5-16.6-3.7,0.1-.3.1-0.6,0.2-0.9,6.1,1,12.3,1.9,18.4,2.9,28.9,4.8,58,8.2,87.2,11,16.8,1.6,33.7,3.3,50.6,3.4,10.7,0,21.2-1.4,31.8-2.6a3.08,3.08,0,0,1,1.6.2c-6,2.5-12.4,2.8-18.7,3.4-22.3,2.2-44.6-.1-66.8-2.1-15.4-1.4-30.7-3.1-46.2-4.2,11.3,1.5,22.5,3.3,33.8,4.4a207.29,207.29,0,0,1,61.3,15.2c3.7,1.5,7.8.5,11.7,0.3,1.9-.1,3.7-0.5,6.1.2-1.7,1.6-3.4,1.1-4.8,1.1a292,292,0,0,1-45.8-1.9c-1.3-.1-2.5-0.4-3.8.4a13.67,13.67,0,0,1-16.1.3c-7.9-5.3-16.9-7-25.5-8.5-14.9-2.6-29.9-5-44.9-7.4a1.42,1.42,0,0,1-1-1.2c6.4,1,12.9,2,19.3,3.1,13.8,2.3,27.6,4.7,41.5,6.4,2.2,0.3,4.2.6,5.7-1.8,0.9-1.6,2.9-1.8,4.7-1.7a21.57,21.57,0,0,1,13.8,4.7c1.1,0.9,2.1,4.1,3.7,4.2,8.9,0.1,17.6,2.2,26.8,1.9-0.5-1.3-1.5-1.3-2.3-1.6-15-5.7-30.7-10-46.6-11.4-24.3-2.2-48.3-6-72.3-10-7-1.2-14-2.4-21.9-3.8,2.1,2.5,3.8,4.4,5.3,6.4a3.18,3.18,0,0,1,.5,3.7c-1,1.3-2.5.7-3.6,0.2a8,8,0,0,1-3.4-1.8c-4-4.6-9.4-8-12.4-13.6-0.7-1.4-1.8-2.9-1.5-4.5,1.5-7.7.3-15.3-.4-22.9-0.4-4.1,1.1-5,5-4.1,25.8,5.4,52,6.9,78.2,8.4,19.1,1.1,38.1,1.8,57.2,2.7a1.65,1.65,0,0,1,1.5.8c-8.4,0-16.9.5-25.2-.1-10.6-.9-21.3-0.5-31.9-1.2-25.3-1.5-50.6-3.4-75.7-7.6-7.5-1.3-7.6-1.2-6.4,6.1,0.4,2.7.8,5.4,1.3,8.8,1.2-3.2,2.1-5.8,3.2-8.3a5.82,5.82,0,0,1,7.1-3.7C155.8,690.2,176.6,692.2,198.5,694.3Z" transform="translate(-121.04 -570.14)"/><path class="cls-1" d="M390.2,704.6c-1.8,7.5-1.2,15.2-2.4,22.8-1.4,8.9-3.3,19.6-7.6,27.6a24.94,24.94,0,0,1-2.9,4.3c-4.5,5.4-9.8,5-13.5-1-4.6-7.5-5.9-17.9-7-26.4-1.6-12-.3-23.9,1.9-36.7-1.7,2.4-1.5,4.3-1.9,6.1a27.23,27.23,0,0,1-1.5,5.4,72.27,72.27,0,0,1,6.3-28.9,29.47,29.47,0,0,1,5.7-9.2c5.5-5.9,11.2-5.3,15.2,1.6,3.7,6.4,5.2,13.4,6.2,20.6,0.6,4.7.2,9.3,1.5,13.8h0ZM378,746.7a10.49,10.49,0,0,0,.5-7.9,63.36,63.36,0,0,0-8.1-14.3c-2.2-2.7-4.2-5.5-7.1-9.4,6.7,2.3,12.3.8,17.7,1.8,2.2,0.4,3.4-.1,3.6-2.4s-1.2-3-3.3-2.9c-3.2.2-6.4,0.6-9.6,0.7-1.2.1-2.9,1.2-3.4-.5a4.6,4.6,0,0,1,.2-4.1,168.42,168.42,0,0,0,12-24.5c1.2-3,.6-4.3-1.3-6.9-4.8,12.7-10.4,24.4-18,35.2,4.7-6.1,3-12.5,1.3-19.3-4.4,12.7-4.5,25.3-3.4,38.1,0.3-2.7.2-5.4,1.2-8a2.87,2.87,0,0,1,2.4-2.3c1.5-.2,1.8,1,2.3,2.1C369,729.7,374.2,738.4,378,746.7ZM366.4,749c1.7-3.3,4.6-8.2,4.6-11.9s-2.9-6.8-6-10.5c-0.2,6.4-.6,13.8-2,18.9s0.5,8.7,3,12.5c1.5,2.3,3.7,3.8,6.7,2.4,2.6-1.2,7.1-7.4,6.1-8.8-2.2-3.3-3.3-9.3-6.4-12.3C370.3,741.9,369.7,747.4,366.4,749Zm17.1-64c-0.4-.1-0.8-0.1-1.2-0.2-1.4,3-2.7,6-4.3,8.8-2.8,4.7-1.2,9.7-.5,14.3,0.5,3.2,5.1,1.6,7.5,3.2,0.4,0.3.9,0.9,1.5,0C386.7,702.3,386.1,693.5,383.5,685Zm3.1,33.5c-1.8.6-3.3,1.2-4.8,1.6-6.3,1.8-7.7,4.7-5,10.9,1.7,3.8,3.4,9.7,5.3,14.1C384.5,736.8,385.7,726.9,386.6,718.5Zm-19.7-18.6c1.5-3.4,3.1-6.7,4.5-10.2,1-2.5-1-7.1-3.4-8.4-1.1-.6-2.1-0.5-2.5.6-1,2.3-2.8,4.5-1.8,7.3C365,692.6,365.5,696.2,366.9,699.9Z" transform="translate(-121.04 -570.14)"/><path class="cls-1" d="M201.7,604.9c33.9-1.6,67.6.1,101.3,3.5C269.2,607.6,235.4,606,201.7,604.9Z" transform="translate(-121.04 -570.14)"/><path class="cls-1" d="M377,636.9c3.7,1.8,4.3,5.1,5.4,8.8,3.6,12.9,7.8,25.7,10,39a23.65,23.65,0,0,1-1.5,13.4,137.17,137.17,0,0,0-2.5-22.2c-2.2-10.3-4.3-20.6-8.5-30.4-0.7-1.7-1.3-3.7-3.9-2.9-2.8.8-1.3,2.7-1.2,4.2-3.2-2.3-3.4-3.3-.4-5,2.1-1.1,2.3-2.9,2.6-4.9h0Z" transform="translate(-121.04 -570.14)"/><path class="cls-1" d="M252.2,715.4c3.6-.8,7,0.5,10.4.4,14.6-.5,29.1.7,43.7,1,7.2,0.1,14.6.8,21.3,4,1.6,0.7,3.7,1.3,3.3,4-10.6-7.4-22.7-6.4-34.3-7.1-13.6-.9-27.4-0.7-41-1.1C254.4,716.6,253.1,717,252.2,715.4Z" transform="translate(-121.04 -570.14)"/><path class="cls-1" d="M156.9,647.1c3.5-1.3,7.1-.5,10.7-0.7,1.6-.1,3.3.1,4.3-1.6,0.5-.9,1.1-1.9.3-2.8-1.5-1.6-1.1.8-1.9,1-3.4.8-6.9-1.4-10.2,0.8-0.4.3-.8-0.6-1-1.2-1.3-3.8,2.1-8.9,6.2-9.2a16.16,16.16,0,0,1,2.2,0c8.3,0.5,10.6,4.7,6.5,12-0.9,1.6-2.1,2.9-4,2.9-4.3.1-8.7,0-13,0A4.48,4.48,0,0,1,156.9,647.1Z" transform="translate(-121.04 -570.14)"/><path class="cls-1" d="M202.7,673.6a97,97,0,0,1-22.2.3c-13-1.2-26-2.5-39.1-3.9-1.3-.1-3.6.2-3.4-1.7,0.3-2.2,2.6-1.3,4-1.1,18.4,2.8,37,4,55.6,5.3A46.47,46.47,0,0,1,202.7,673.6Z" transform="translate(-121.04 -570.14)"/></svg>