<svg id="_1170px_grid" data-name="1170px grid" xmlns="http://www.w3.org/2000/svg" viewBox="0 0 31.29 62.23"><defs><style>.cls-1{fill:#fff;}</style></defs><title>full_w_template</title><path class="cls-1" d="M648.49,417.7a2.73,2.73,0,0,1,1.18,2.72,2.51,2.51,0,0,1-.62,1.17,12,12,0,0,1-7.41,4,9.17,9.17,0,0,1-4.8-.78c-1.2-.54-2.35-1.19-3.54-1.76a16.13,16.13,0,0,0-4.35-1.41,8.89,8.89,0,0,0-7.27,2,2.83,2.83,0,0,1-2.66.38,0.48,0.48,0,0,1-.4-0.54v-1.69h0V421.7c0-2.05,0-2.06,1.95-3.24a14,14,0,0,1,7.36-2.21,14.55,14.55,0,0,1,7.8,2.47,16.27,16.27,0,0,0,1.78,1,6.6,6.6,0,0,0,6.37-.27c0.7-.4,1.32-0.91,2-1.34S647.46,417.13,648.49,417.7Z" transform="translate(-618.49 -372.96)"/><path class="cls-1" d="M649,427.54a2.12,2.12,0,0,1,.39,2.84c-2.06,2.8-4.78,4.79-8.82,4.81a9.09,9.09,0,0,1-4.23-1.22,33.6,33.6,0,0,0-5.37-2.31,10.32,10.32,0,0,0-9.8,1.57,2.31,2.31,0,0,1-2.19.24,0.44,0.44,0,0,1-.36-0.5v-1.43c-0.38-1.07.42-1.9,1.33-2.72a12.17,12.17,0,0,1,4.5-2.77,11.26,11.26,0,0,1,7.88.54c1.23,0.5,2.35,1.18,3.53,1.78a13,13,0,0,0,3.62,1.27,7.13,7.13,0,0,0,5.92-1.57,11,11,0,0,1,1.18-.88A1.88,1.88,0,0,1,649,427.54Z" transform="translate(-618.49 -372.96)"/><path class="cls-1" d="M649.32,409.17a2.14,2.14,0,0,1-.14,2.7,11.48,11.48,0,0,1-7,4.23A10.09,10.09,0,0,1,636,415c-1.52-.75-3-1.54-4.63-2.15-3.73-1.41-7.06-1-10,1.6a2.94,2.94,0,0,1-2.56.17,0.54,0.54,0,0,1-.22-0.53c0-.56,0-1.13,0-1.95-0.47-1.31.43-2.21,1.8-3.07a13.12,13.12,0,0,1,14.27-.4c0.7,0.4,1.37.85,2.06,1.26a6.78,6.78,0,0,0,7.85-.31c0.56-.4,1.09-0.82,1.68-1.17A2,2,0,0,1,649.32,409.17Z" transform="translate(-618.49 -372.96)"/><path class="cls-1" d="M647.92,401.76c0.49,0.79.49,0.8-.57,0.8s-2.08,0-3.11,0a1.65,1.65,0,0,1-1.65-.86c-2.34-3.84-4.71-7.66-7.05-11.5a1.26,1.26,0,0,0-1.26-.67c-2.46,0-4.92,0-7.39,0a3.63,3.63,0,0,1-2.58-.89v0.85q0,6,0,12c0,1-.08,1-1.19,1s-2,0-3,0c-0.51,0-.73-0.16-0.71-0.6,0-.2,0-0.39,0-0.59V376.15c0-2.18,1-3.13,3.45-3.15,5.1,0,10.2,0,15.3,0a11.43,11.43,0,0,1,6,1.44,5.44,5.44,0,0,1,2.93,4.83c0,1.32,0,2.64,0,4a5.1,5.1,0,0,1-2.67,4.53,11.45,11.45,0,0,1-3.25,1.37c-0.86.23-.86,0.24-0.43,1Zm-5.77-18.82c0-1.14,0-2.29,0-3.44a2.47,2.47,0,0,0-.81-1.83,4.28,4.28,0,0,0-3.05-1.12c-4.24,0-8.47,0-12.71,0a1,1,0,0,0-1.25,1.12q0,3.63,0,7.28c0,0.81.28,1,1.2,1h6.58c2.21,0,4.43,0,6.65,0A3.17,3.17,0,0,0,642.15,382.94Z" transform="translate(-618.49 -372.96)"/></svg>