<svg id="_1170px_grid" data-name="1170px grid" xmlns="http://www.w3.org/2000/svg" viewBox="0 0 190.14 160.25"><defs><style>.cls-1{fill:#fff;}</style></defs><title>s1_logo_b</title><path class="cls-1" d="M554,298l8.17-25.16a3.06,3.06,0,0,1,1-1.48,2.58,2.58,0,0,1,1.62-.56h4a0.4,0.4,0,0,1,.39.25L578,298h-2.75a0.59,0.59,0,0,1-.38-0.14,0.63,0.63,0,0,1-.22-0.34l-2.24-7h-12.8l-2.26,7a0.63,0.63,0,0,1-.22.34,0.57,0.57,0,0,1-.37.14H554Zm6.6-10.57h10.8L567,273.95h-1.64a0.61,0.61,0,0,0-.61.48Z" transform="translate(-554.02 -181.36)"/><path class="cls-1" d="M577.39,270.84h2.91a0.57,0.57,0,0,1,.34.14,0.64,0.64,0,0,1,.23.3L588,293.43l7.1-22.15a0.87,0.87,0,0,1,.25-0.31,0.52,0.52,0,0,1,.33-0.13h2.91l-8.71,26.71a0.68,0.68,0,0,1-.22.33,0.53,0.53,0,0,1-.35.15h-2.65a0.53,0.53,0,0,1-.35-0.15,0.68,0.68,0,0,1-.22-0.33Z" transform="translate(-554.02 -181.36)"/><path class="cls-1" d="M600.95,292V276.84a6.18,6.18,0,0,1,1.66-4.36,5.29,5.29,0,0,1,4-1.79h7.58a5.3,5.3,0,0,1,4,1.8,6.16,6.16,0,0,1,1.68,4.35V292a6.16,6.16,0,0,1-1.68,4.35,5.3,5.3,0,0,1-4,1.8h-7.58a5.3,5.3,0,0,1-4-1.79A6.18,6.18,0,0,1,600.95,292Zm3.14,0.28a2.78,2.78,0,0,0,.74,1.94,2.36,2.36,0,0,0,1.81.81h7.58a2.36,2.36,0,0,0,1.79-.8,2.77,2.77,0,0,0,.74-2V276.56a2.77,2.77,0,0,0-.74-2,2.36,2.36,0,0,0-1.79-.8h-7.58a2.36,2.36,0,0,0-1.81.81,2.78,2.78,0,0,0-.74,1.94V292.3Z" transform="translate(-554.02 -181.36)"/><path class="cls-1" d="M624.63,297.55V270.84h2.72a0.39,0.39,0,0,1,.29.14,0.48,0.48,0,0,1,.13.34V298h-2.7a0.41,0.41,0,0,1-.31-0.14A0.48,0.48,0,0,1,624.63,297.55Z" transform="translate(-554.02 -181.36)"/><path class="cls-1" d="M632.41,295.92v-23a2.13,2.13,0,0,1,.56-1.49,1.8,1.8,0,0,1,1.38-.62h10.75a5.3,5.3,0,0,1,4,1.79,6.18,6.18,0,0,1,1.66,4.36v14.88a6.18,6.18,0,0,1-1.67,4.34,5.28,5.28,0,0,1-4,1.81H634.36a1.8,1.8,0,0,1-1.38-.62A2.12,2.12,0,0,1,632.41,295.92Zm3.14-1.7a0.71,0.71,0,0,0,.18.49,0.58,0.58,0,0,0,.46.2h8.92a2.36,2.36,0,0,0,1.81-.81,2.78,2.78,0,0,0,.74-1.94V276.7a2.78,2.78,0,0,0-.74-1.95,2.36,2.36,0,0,0-1.81-.81h-8.92a0.59,0.59,0,0,0-.46.19,0.7,0.7,0,0,0-.18.5v19.59Z" transform="translate(-554.02 -181.36)"/><path class="cls-1" d="M555.59,341.47V316.38a2.13,2.13,0,0,1,.56-1.49,1.8,1.8,0,0,1,1.38-.62h10.52a5.48,5.48,0,0,1,5.7,5.83v3.5a5.22,5.22,0,0,1-1.28,3.65,6.83,6.83,0,0,1-3.29,2l5.37,12.23h-2.91a0.56,0.56,0,0,1-.34-0.14A0.93,0.93,0,0,1,571,341L566,329.41h-5.27a1.72,1.72,0,0,1-1.88-1h-0.07V341a0.48,0.48,0,0,1-.13.34,0.39,0.39,0,0,1-.29.14h-2.72Zm3.14-15.86a0.68,0.68,0,0,0,.19.5,0.6,0.6,0,0,0,.45.19h8.69a2.36,2.36,0,0,0,1.79-.8,2.77,2.77,0,0,0,.74-2v-3.39a2.77,2.77,0,0,0-.74-2,2.36,2.36,0,0,0-1.79-.8h-8.69a0.58,0.58,0,0,0-.46.2,0.71,0.71,0,0,0-.18.49v7.53Z" transform="translate(-554.02 -181.36)"/><path class="cls-1" d="M577.28,335.46V314.28H580a0.4,0.4,0,0,1,.29.14,0.48,0.48,0,0,1,.13.34v21a2.78,2.78,0,0,0,.74,1.94,2.36,2.36,0,0,0,1.81.81h7.58a2.37,2.37,0,0,0,1.8-.81,2.76,2.76,0,0,0,.75-1.94v-21a0.48,0.48,0,0,1,.13-0.34,0.39,0.39,0,0,1,.29-0.14h2.72v21.18a6.16,6.16,0,0,1-1.68,4.35,5.3,5.3,0,0,1-4,1.8H583a5.3,5.3,0,0,1-4-1.79A6.18,6.18,0,0,1,577.28,335.46Z" transform="translate(-554.02 -181.36)"/><path class="cls-1" d="M599.74,341.47v-2.65a0.44,0.44,0,0,1,.44-0.46h12.39a2.28,2.28,0,0,0,1.77-.8,2.82,2.82,0,0,0,.72-2v-3.29a0.94,0.94,0,0,0-.18-0.53,0.78,0.78,0,0,0-.43-0.34l-12.87-4.63a2.65,2.65,0,0,1-1.3-1.08,3,3,0,0,1-.55-1.68v-4.31a5.12,5.12,0,0,1,1.63-4,5.81,5.81,0,0,1,4.07-1.48h11.93v2.63a0.52,0.52,0,0,1-.11.34,0.38,0.38,0,0,1-.31.14H605.43a2.61,2.61,0,0,0-1.83.69,2.33,2.33,0,0,0-.75,1.8v3.52a1,1,0,0,0,.18.56,0.9,0.9,0,0,0,.43.34l12.88,4.6a2.42,2.42,0,0,1,1.24,1.09,3.24,3.24,0,0,1,.5,1.71v3.87a5.92,5.92,0,0,1-1.58,4.22,5.16,5.16,0,0,1-3.92,1.68H599.74Z" transform="translate(-554.02 -181.36)"/><path class="cls-1" d="M621.65,341.47V314.28h2.72a0.4,0.4,0,0,1,.29.14,0.48,0.48,0,0,1,.13.34V326.3h12V314.76a0.48,0.48,0,0,1,.13-0.34,0.4,0.4,0,0,1,.29-0.14H640v27.19h-2.72a0.39,0.39,0,0,1-.29-0.14,0.48,0.48,0,0,1-.13-0.34V329.41h-12V341a0.48,0.48,0,0,1-.13.34,0.39,0.39,0,0,1-.29.14h-2.72Z" transform="translate(-554.02 -181.36)"/><path class="cls-1" d="M656.75,341.47V314.28h2.72a0.4,0.4,0,0,1,.29.14,0.48,0.48,0,0,1,.13.34V326.3h12V314.76a0.48,0.48,0,0,1,.13-0.34,0.4,0.4,0,0,1,.29-0.14h2.72v27.19h-2.72a0.39,0.39,0,0,1-.29-0.14,0.48,0.48,0,0,1-.13-0.34V329.41h-12V341a0.48,0.48,0,0,1-.13.34,0.39,0.39,0,0,1-.29.14h-2.72Z" transform="translate(-554.02 -181.36)"/><path class="cls-1" d="M679.11,335.46V320.29a6.18,6.18,0,0,1,1.66-4.36,5.29,5.29,0,0,1,4-1.79h7.58a5.3,5.3,0,0,1,4,1.8,6.16,6.16,0,0,1,1.68,4.35v15.17a6.16,6.16,0,0,1-1.68,4.35,5.3,5.3,0,0,1-4,1.8H684.8a5.3,5.3,0,0,1-4-1.79A6.18,6.18,0,0,1,679.11,335.46Zm3.14,0.28a2.78,2.78,0,0,0,.74,1.94,2.36,2.36,0,0,0,1.81.81h7.58a2.36,2.36,0,0,0,1.79-.8,2.77,2.77,0,0,0,.74-2V320a2.77,2.77,0,0,0-.74-2,2.36,2.36,0,0,0-1.79-.8H684.8a2.36,2.36,0,0,0-1.81.81,2.78,2.78,0,0,0-.74,1.94v15.73Z" transform="translate(-554.02 -181.36)"/><path class="cls-1" d="M702.12,335.46V314.28h2.72a0.4,0.4,0,0,1,.29.14,0.48,0.48,0,0,1,.13.34v21a2.78,2.78,0,0,0,.74,1.94,2.36,2.36,0,0,0,1.81.81h7.58a2.37,2.37,0,0,0,1.8-.81,2.76,2.76,0,0,0,.75-1.94v-21a0.48,0.48,0,0,1,.13-0.34,0.39,0.39,0,0,1,.29-0.14h2.72v21.18a6.16,6.16,0,0,1-1.68,4.35,5.3,5.3,0,0,1-4,1.8h-7.58a5.3,5.3,0,0,1-4-1.79A6.18,6.18,0,0,1,702.12,335.46Z" transform="translate(-554.02 -181.36)"/><path class="cls-1" d="M725.19,341.47V316.38a2.13,2.13,0,0,1,.56-1.49,1.8,1.8,0,0,1,1.38-.62h10.52a5.48,5.48,0,0,1,5.7,5.83v3.5a5.22,5.22,0,0,1-1.28,3.65,6.83,6.83,0,0,1-3.29,2l5.37,12.23h-2.91a0.56,0.56,0,0,1-.34-0.14,0.93,0.93,0,0,1-.26-0.3l-5.09-11.61h-5.27a1.72,1.72,0,0,1-1.88-1h-0.07V341a0.48,0.48,0,0,1-.13.34,0.39,0.39,0,0,1-.29.14h-2.72Zm3.14-15.86a0.68,0.68,0,0,0,.19.5,0.6,0.6,0,0,0,.45.19h8.69a2.36,2.36,0,0,0,1.79-.8,2.77,2.77,0,0,0,.74-2v-3.39a2.77,2.77,0,0,0-.74-2,2.36,2.36,0,0,0-1.79-.8H729a0.58,0.58,0,0,0-.46.2,0.71,0.71,0,0,0-.18.49v7.53Z" transform="translate(-554.02 -181.36)"/><path class="cls-1" d="M644.16,226.1a2.73,2.73,0,0,1,1.18,2.72,2.51,2.51,0,0,1-.62,1.17,12,12,0,0,1-7.41,4,9.17,9.17,0,0,1-4.8-.78c-1.2-.54-2.35-1.19-3.54-1.76a16.13,16.13,0,0,0-4.35-1.41,8.89,8.89,0,0,0-7.27,2,2.83,2.83,0,0,1-2.66.38,0.48,0.48,0,0,1-.4-0.54v-1.69h0V230.1c0-2.05,0-2.06,1.95-3.24a14,14,0,0,1,7.36-2.21,14.55,14.55,0,0,1,7.8,2.47,16.27,16.27,0,0,0,1.78,1,6.6,6.6,0,0,0,6.37-.27c0.7-.4,1.32-0.91,2-1.34S643.13,225.53,644.16,226.1Z" transform="translate(-554.02 -181.36)"/><path class="cls-1" d="M644.67,235.94a2.12,2.12,0,0,1,.39,2.84c-2.06,2.8-4.78,4.79-8.82,4.81a9.09,9.09,0,0,1-4.23-1.22,33.6,33.6,0,0,0-5.37-2.31,10.32,10.32,0,0,0-9.8,1.57,2.31,2.31,0,0,1-2.19.24,0.44,0.44,0,0,1-.36-0.5v-1.43c-0.38-1.07.42-1.9,1.33-2.72a12.17,12.17,0,0,1,4.5-2.77A11.26,11.26,0,0,1,628,235c1.23,0.5,2.35,1.18,3.53,1.78a13,13,0,0,0,3.62,1.27,7.13,7.13,0,0,0,5.92-1.57,11,11,0,0,1,1.18-.88A1.88,1.88,0,0,1,644.67,235.94Z" transform="translate(-554.02 -181.36)"/><path class="cls-1" d="M645,217.57a2.14,2.14,0,0,1-.14,2.7,11.48,11.48,0,0,1-7,4.23,10.09,10.09,0,0,1-6.18-1.11c-1.52-.75-3-1.54-4.63-2.15-3.73-1.41-7.06-1-10,1.6a2.94,2.94,0,0,1-2.56.17,0.54,0.54,0,0,1-.22-0.53c0-.56,0-1.13,0-1.95-0.47-1.31.43-2.21,1.8-3.07a13.12,13.12,0,0,1,14.27-.4c0.7,0.4,1.37.85,2.06,1.26a6.78,6.78,0,0,0,7.85-.31c0.56-.4,1.09-0.82,1.68-1.17A2,2,0,0,1,645,217.57Z" transform="translate(-554.02 -181.36)"/><path class="cls-1" d="M643.59,210.16c0.49,0.79.49,0.8-.57,0.8s-2.08,0-3.11,0a1.65,1.65,0,0,1-1.65-.86c-2.34-3.84-4.71-7.66-7.05-11.5a1.26,1.26,0,0,0-1.26-.67c-2.46,0-4.92,0-7.39,0a3.63,3.63,0,0,1-2.58-.89v0.85q0,6,0,12c0,1-.08,1-1.19,1s-2,0-3,0c-0.51,0-.73-0.16-0.71-0.6,0-.2,0-0.39,0-0.59V184.55c0-2.18,1-3.13,3.45-3.15,5.1,0,10.2,0,15.3,0a11.43,11.43,0,0,1,6,1.44,5.44,5.44,0,0,1,2.93,4.83c0,1.32,0,2.64,0,4a5.1,5.1,0,0,1-2.67,4.53,11.45,11.45,0,0,1-3.25,1.37c-0.86.23-.86,0.24-0.43,1Zm-5.77-18.82c0-1.14,0-2.29,0-3.44a2.47,2.47,0,0,0-.81-1.83,4.28,4.28,0,0,0-3.05-1.12c-4.24,0-8.47,0-12.71,0a1,1,0,0,0-1.25,1.12q0,3.63,0,7.28c0,0.81.28,1,1.2,1h6.58c2.21,0,4.43,0,6.65,0A3.17,3.17,0,0,0,637.82,191.34Z" transform="translate(-554.02 -181.36)"/></svg>