<svg id="Layer_1" data-name="Layer 1" xmlns="http://www.w3.org/2000/svg" viewBox="0 0 248.56 164.06"><defs><style>.cls-1{fill:#fff;}</style></defs><title>s1_logo_c</title><path class="cls-1" d="M302.16,354.1a2.73,2.73,0,0,1,1.18,2.72,2.51,2.51,0,0,1-.62,1.17,12,12,0,0,1-7.41,4,9.17,9.17,0,0,1-4.8-.78c-1.2-.54-2.35-1.19-3.54-1.76a16.13,16.13,0,0,0-4.35-1.41,8.89,8.89,0,0,0-7.27,2,2.83,2.83,0,0,1-2.66.38,0.48,0.48,0,0,1-.4-0.54v-1.69h0V358.1c0-2.05,0-2.06,1.95-3.24a14,14,0,0,1,7.36-2.21,14.55,14.55,0,0,1,7.8,2.47,16.27,16.27,0,0,0,1.78,1,6.6,6.6,0,0,0,6.37-.27c0.7-.4,1.32-0.91,2-1.34S301.13,353.53,302.16,354.1Z" transform="translate(-171.44 -309.36)"/><path class="cls-1" d="M302.67,363.94a2.12,2.12,0,0,1,.39,2.84c-2.06,2.8-4.78,4.79-8.82,4.81a9.09,9.09,0,0,1-4.23-1.22,33.6,33.6,0,0,0-5.37-2.31,10.32,10.32,0,0,0-9.8,1.57,2.31,2.31,0,0,1-2.19.24,0.44,0.44,0,0,1-.36-0.5v-1.43c-0.38-1.07.42-1.9,1.33-2.72a12.17,12.17,0,0,1,4.5-2.77A11.26,11.26,0,0,1,286,363c1.23,0.5,2.35,1.18,3.53,1.78a13,13,0,0,0,3.62,1.27,7.13,7.13,0,0,0,5.92-1.57,11,11,0,0,1,1.18-.88A1.88,1.88,0,0,1,302.67,363.94Z" transform="translate(-171.44 -309.36)"/><path class="cls-1" d="M303,345.57a2.14,2.14,0,0,1-.14,2.7,11.48,11.48,0,0,1-7,4.23,10.09,10.09,0,0,1-6.18-1.11c-1.52-.75-3-1.54-4.63-2.15-3.73-1.41-7.06-1-10,1.6a2.94,2.94,0,0,1-2.56.17,0.54,0.54,0,0,1-.22-0.53c0-.56,0-1.13,0-1.95-0.47-1.31.43-2.21,1.8-3.07a13.12,13.12,0,0,1,14.27-.4c0.7,0.4,1.37.85,2.06,1.26a6.78,6.78,0,0,0,7.85-.31c0.56-.4,1.09-0.82,1.68-1.17A2,2,0,0,1,303,345.57Z" transform="translate(-171.44 -309.36)"/><path class="cls-1" d="M301.59,338.16c0.49,0.79.49,0.8-.57,0.8s-2.08,0-3.11,0a1.65,1.65,0,0,1-1.65-.86c-2.34-3.84-4.71-7.66-7.05-11.5a1.26,1.26,0,0,0-1.26-.67c-2.46,0-4.92,0-7.39,0a3.63,3.63,0,0,1-2.58-.89v0.85q0,6,0,12c0,1-.08,1-1.19,1s-2,0-3,0c-0.51,0-.73-0.16-0.71-0.6,0-.2,0-0.39,0-0.59V312.55c0-2.18,1-3.13,3.45-3.15,5.1,0,10.2,0,15.3,0a11.43,11.43,0,0,1,6,1.44,5.44,5.44,0,0,1,2.93,4.83c0,1.32,0,2.64,0,4a5.1,5.1,0,0,1-2.67,4.53,11.45,11.45,0,0,1-3.25,1.37c-0.86.23-.86,0.24-0.43,1Zm-5.77-18.82c0-1.14,0-2.29,0-3.44a2.47,2.47,0,0,0-.81-1.83A4.28,4.28,0,0,0,292,313c-4.24,0-8.47,0-12.71,0a1,1,0,0,0-1.25,1.12q0,3.63,0,7.28c0,0.81.28,1,1.2,1h6.58c2.21,0,4.43,0,6.65,0A3.17,3.17,0,0,0,295.82,319.34Z" transform="translate(-171.44 -309.36)"/><path class="cls-1" d="M171.44,404.42v-2.69a0.47,0.47,0,0,1,.14-0.34,0.45,0.45,0,0,1,.33-0.14h19.69v2.69a0.45,0.45,0,0,1-.15.34,0.48,0.48,0,0,1-.33.14H183.2v24.12a0.5,0.5,0,0,1-.13.34,0.43,0.43,0,0,1-.34.14h-3V404.42h-8.29Z" transform="translate(-171.44 -309.36)"/><path class="cls-1" d="M194.44,429V403.39a2.08,2.08,0,0,1,.62-1.52,2.06,2.06,0,0,1,1.53-.63h11.62a6.48,6.48,0,0,1,4.5,1.61,5.56,5.56,0,0,1,1.79,4.35v3.58a5.1,5.1,0,0,1-1.41,3.73,7.66,7.66,0,0,1-3.63,2l5.93,12.5h-3.22a0.65,0.65,0,0,1-.38-0.14,1,1,0,0,1-.29-0.31l-5.62-11.87h-5.82q-1.72,0-2.08-1h-0.07v12.83a0.47,0.47,0,0,1-.14.34,0.45,0.45,0,0,1-.33.14h-3Zm3.47-16.21a0.67,0.67,0,0,0,.21.51,0.69,0.69,0,0,0,.5.2h9.59a2.81,2.81,0,0,0,2.8-2.82v-3.47a2.81,2.81,0,0,0-2.8-2.82h-9.59a0.67,0.67,0,0,0-.51.21,0.69,0.69,0,0,0-.2.5v7.7Z" transform="translate(-171.44 -309.36)"/><path class="cls-1" d="M216.61,429l9-25.71a3.13,3.13,0,0,1,1.14-1.51,3,3,0,0,1,1.79-.57H233a0.45,0.45,0,0,1,.43.25l9.7,27.53h-3a0.68,0.68,0,0,1-.42-0.14,0.64,0.64,0,0,1-.24-0.34l-2.48-7.14H222.79l-2.49,7.14a0.64,0.64,0,0,1-.24.34,0.66,0.66,0,0,1-.41.14h-3Zm7.28-10.8h11.92L231,404.42h-1.81a0.67,0.67,0,0,0-.67.49Z" transform="translate(-171.44 -309.36)"/><path class="cls-1" d="M246,429v-21.5a6.26,6.26,0,0,1,6.29-6.29h12.47v2.69a0.47,0.47,0,0,1-.14.34,0.45,0.45,0,0,1-.33.14h-12a2.82,2.82,0,0,0-2.82,2.82v7.1a2.15,2.15,0,0,1,1.86-.81h12.57v2.69a0.47,0.47,0,0,1-.14.34,0.45,0.45,0,0,1-.33.14h-14v11.83a0.47,0.47,0,0,1-.14.34,0.45,0.45,0,0,1-.33.14h-3Z" transform="translate(-171.44 -309.36)"/><path class="cls-1" d="M267.9,429v-21.5a6.26,6.26,0,0,1,6.29-6.29h12.47v2.69a0.47,0.47,0,0,1-.14.34,0.45,0.45,0,0,1-.33.14h-12a2.82,2.82,0,0,0-2.82,2.82v7.1a2.15,2.15,0,0,1,1.86-.81H285.8v2.69a0.47,0.47,0,0,1-.14.34,0.45,0.45,0,0,1-.33.14h-14v11.83a0.47,0.47,0,0,1-.14.34,0.45,0.45,0,0,1-.33.14h-3Z" transform="translate(-171.44 -309.36)"/><path class="cls-1" d="M290.54,428.54v-27.3h3a0.45,0.45,0,0,1,.33.14,0.47,0.47,0,0,1,.14.34V429h-3A0.49,0.49,0,0,1,290.54,428.54Z" transform="translate(-171.44 -309.36)"/><path class="cls-1" d="M299,422.74V407.52a6.26,6.26,0,0,1,6.29-6.29h12.21v2.69a0.45,0.45,0,0,1-.15.34,0.48,0.48,0,0,1-.33.14H305.33a2.82,2.82,0,0,0-2.82,2.82V423a2.82,2.82,0,0,0,2.82,2.82h11.73a0.47,0.47,0,0,1,.34.14,0.45,0.45,0,0,1,.14.33V429H305.33A6.31,6.31,0,0,1,299,422.74Z" transform="translate(-171.44 -309.36)"/><path class="cls-1" d="M173,473.39V446.16a0.46,0.46,0,0,1,.14-0.35,0.48,0.48,0,0,1,.34-0.14h2.58a1.09,1.09,0,0,1,.56.17,1.18,1.18,0,0,1,.43.42l9.21,16.87,9.25-16.87a1.17,1.17,0,0,1,.43-0.42,1.09,1.09,0,0,1,.56-0.17h2.6a0.45,0.45,0,0,1,.33.14,0.48,0.48,0,0,1,.14.35v27.23h-3a0.48,0.48,0,0,1-.33-0.14,0.46,0.46,0,0,1-.15-0.34V451.29L188.39,466a0.8,0.8,0,0,1-.74.45h-2.71a0.8,0.8,0,0,1-.74-0.45l-7.73-14.69V472.9a0.47,0.47,0,0,1-.14.34,0.45,0.45,0,0,1-.33.14h-3Z" transform="translate(-171.44 -309.36)"/><path class="cls-1" d="M202.37,473.42l9-25.71a3.13,3.13,0,0,1,1.14-1.51,3,3,0,0,1,1.79-.57h4.41a0.45,0.45,0,0,1,.43.25l9.7,27.53h-3a0.68,0.68,0,0,1-.42-0.14,0.64,0.64,0,0,1-.24-0.34l-2.48-7.14H208.55l-2.49,7.14a0.64,0.64,0,0,1-.24.34,0.66,0.66,0,0,1-.41.14h-3Zm7.28-10.8h11.92l-4.82-13.8h-1.81a0.67,0.67,0,0,0-.67.49Z" transform="translate(-171.44 -309.36)"/><path class="cls-1" d="M231.8,471.27V447.79a2.08,2.08,0,0,1,.62-1.52,2.06,2.06,0,0,1,1.53-.63h11.87a6.26,6.26,0,0,1,6.29,6.29v15.21a6.31,6.31,0,0,1-6.29,6.29H234a2.06,2.06,0,0,1-1.53-.63A2.08,2.08,0,0,1,231.8,471.27Zm3.47-1.73a0.69,0.69,0,0,0,.2.5,0.67,0.67,0,0,0,.51.21h9.85a2.82,2.82,0,0,0,2.82-2.82V451.64a2.82,2.82,0,0,0-2.82-2.82H236a0.68,0.68,0,0,0-.7.7v20Z" transform="translate(-171.44 -309.36)"/><path class="cls-1" d="M256.52,467.14V451.92a6.26,6.26,0,0,1,6.29-6.29h12.47v2.69a0.47,0.47,0,0,1-.14.34,0.45,0.45,0,0,1-.33.14h-12a2.82,2.82,0,0,0-2.82,2.82v7a2.2,2.2,0,0,1,1.82-.74H274v2.69a0.49,0.49,0,0,1-.49.49H260v6.32a2.82,2.82,0,0,0,2.82,2.82h12a0.44,0.44,0,0,1,.33.14,0.47,0.47,0,0,1,.14.33v2.71H262.81A6.26,6.26,0,0,1,256.52,467.14Z" transform="translate(-171.44 -309.36)"/><path class="cls-1" d="M292,473.42v-2.71a0.43,0.43,0,0,1,.14-0.34,0.5,0.5,0,0,1,.34-0.13h13.68a2.61,2.61,0,0,0,2-.82,2.76,2.76,0,0,0,.79-2v-3.36a0.92,0.92,0,0,0-.2-0.54,0.86,0.86,0,0,0-.47-0.34l-14.2-4.73a3.19,3.19,0,0,1-2-2.82v-4.41a5,5,0,0,1,1.8-4.06,6.72,6.72,0,0,1,4.49-1.52h13.17v2.69a0.51,0.51,0,0,1-.13.34,0.43,0.43,0,0,1-.34.14h-12.7a3,3,0,0,0-2,.7,2.3,2.3,0,0,0-.83,1.84V455a0.92,0.92,0,0,0,.2.57,1,1,0,0,0,.47.35l14.22,4.7a2.63,2.63,0,0,1,1.36,1.11,3.14,3.14,0,0,1,.55,1.74v4a5.81,5.81,0,0,1-1.74,4.32,5.92,5.92,0,0,1-4.33,1.72H292Z" transform="translate(-171.44 -309.36)"/><path class="cls-1" d="M317,472.94v-27.3h3a0.45,0.45,0,0,1,.33.14,0.47,0.47,0,0,1,.14.34v27.3h-3A0.49,0.49,0,0,1,317,472.94Z" transform="translate(-171.44 -309.36)"/><path class="cls-1" d="M325.5,473.39V446.16a0.45,0.45,0,0,1,.14-0.35,0.48,0.48,0,0,1,.34-0.14h2.58a1.09,1.09,0,0,1,.56.17,1.18,1.18,0,0,1,.43.42l9.21,16.87L348,446.27a1.18,1.18,0,0,1,.43-0.42,1.09,1.09,0,0,1,.56-0.17h2.6a0.45,0.45,0,0,1,.33.14,0.48,0.48,0,0,1,.14.35v27.23h-3a0.48,0.48,0,0,1-.33-0.14,0.46,0.46,0,0,1-.15-0.34V451.29L340.89,466a0.81,0.81,0,0,1-.74.45h-2.71a0.8,0.8,0,0,1-.74-0.45L329,451.29V472.9a0.47,0.47,0,0,1-.14.34,0.45,0.45,0,0,1-.33.14h-3Z" transform="translate(-171.44 -309.36)"/><path class="cls-1" d="M356.61,473.42V447.79a2.08,2.08,0,0,1,.62-1.52,2.06,2.06,0,0,1,1.53-.63h11.58a6.31,6.31,0,0,1,6.29,6.29v3.67a6.31,6.31,0,0,1-6.29,6.29h-8.11a2.51,2.51,0,0,1-1.47-.43,1.42,1.42,0,0,1-.68-1v12.54a0.47,0.47,0,0,1-.14.34,0.45,0.45,0,0,1-.32.14h-3ZM360.07,458a0.74,0.74,0,0,0,.71.7h9.56a2.81,2.81,0,0,0,2.8-2.82v-4.25a2.81,2.81,0,0,0-2.8-2.82h-9.56a0.67,0.67,0,0,0-.51.21,0.69,0.69,0,0,0-.2.5V458Z" transform="translate(-171.44 -309.36)"/><path class="cls-1" d="M379.95,467v-20.9a0.46,0.46,0,0,1,.15-0.34,0.47,0.47,0,0,1,.33-0.14h3v21.72a2.8,2.8,0,0,0,.84,2,2.73,2.73,0,0,0,2,.85h11.54a0.47,0.47,0,0,1,.34.14,0.45,0.45,0,0,1,.14.33v2.71h-12a6,6,0,0,1-4.47-1.88A6.2,6.2,0,0,1,379.95,467Z" transform="translate(-171.44 -309.36)"/><path class="cls-1" d="M401.25,467.14V451.92a6.26,6.26,0,0,1,6.29-6.29H420v2.69a0.47,0.47,0,0,1-.14.34,0.45,0.45,0,0,1-.33.14h-12a2.82,2.82,0,0,0-2.82,2.82v7a2.2,2.2,0,0,1,1.82-.74h12.18v2.69a0.49,0.49,0,0,1-.49.49H404.72v6.32a2.82,2.82,0,0,0,2.82,2.82h12a0.44,0.44,0,0,1,.33.14,0.47,0.47,0,0,1,.14.33v2.71H407.54A6.26,6.26,0,0,1,401.25,467.14Z" transform="translate(-171.44 -309.36)"/></svg>