<svg id="_1170px_grid" data-name="1170px grid" xmlns="http://www.w3.org/2000/svg" xmlns:xlink="http://www.w3.org/1999/xlink" viewBox="0 0 587.26 268.34"><defs><style>.cls-1{fill:url(#linear-gradient);}.cls-2{fill:url(#linear-gradient-2);}.cls-3{fill:url(#linear-gradient-3);}.cls-4{fill:url(#linear-gradient-4);}.cls-5{fill:url(#linear-gradient-5);}.cls-6{fill:#404041;}.cls-7{fill:url(#linear-gradient-6);}.cls-8{fill:#fff;}.cls-9{fill:none;stroke:#404041;stroke-miterlimit:10;}</style><linearGradient id="linear-gradient" x1="730.16" y1="405.51" x2="882.52" y2="405.51" gradientUnits="userSpaceOnUse"><stop offset="1" stop-color="#15ff72"/><stop offset="1" stop-color="#17fd71" stop-opacity="0.99"/><stop offset="1" stop-color="#1df76e" stop-opacity="0.97"/><stop offset="1" stop-color="#28ed69" stop-opacity="0.92"/><stop offset="1" stop-color="#37de61" stop-opacity="0.85"/><stop offset="1" stop-color="#4cca57" stop-opacity="0.77"/><stop offset="1" stop-color="#64b24b" stop-opacity="0.66"/><stop offset="1" stop-color="#82953d" stop-opacity="0.53"/><stop offset="1" stop-color="#a5732c" stop-opacity="0.39"/><stop offset="1" stop-color="#cc4c19" stop-opacity="0.22"/><stop offset="1" stop-color="#f72304" stop-opacity="0.04"/><stop offset="1" stop-color="#ff1b00" stop-opacity="0"/><stop offset="1" stop-color="#00ff98" stop-opacity="0.63"/></linearGradient><linearGradient id="linear-gradient-2" x1="295.3" y1="446.33" x2="882.35" y2="446.33" gradientUnits="userSpaceOnUse"><stop offset="0" stop-color="#9990c5"/><stop offset="1" stop-color="#2483c5" stop-opacity="0"/></linearGradient><linearGradient id="linear-gradient-3" x1="589.13" y1="489.54" x2="730.15" y2="489.54" xlink:href="#linear-gradient"/><linearGradient id="linear-gradient-4" x1="447.64" y1="403.09" x2="588.63" y2="403.09" xlink:href="#linear-gradient"/><linearGradient id="linear-gradient-5" x1="295.27" y1="487.11" x2="447.63" y2="487.11" xlink:href="#linear-gradient"/><linearGradient id="linear-gradient-6" x1="544.99" y1="299.62" x2="626.48" y2="299.62" xlink:href="#linear-gradient"/></defs><title>s3_api</title><g id="money_loop_.tiff" data-name="money loop .tiff"><path class="cls-1" d="M791.28,388.25c-22.22,3.14-46.1,21.12-49.79,52.76-1.33-6-1.55-12.14-3.53-18a162.41,162.41,0,0,0-7.8-18.13c9.29-14.32,21.32-25.54,37.11-32.6C817,350,874.58,381.79,881.83,435.44c0.47,3.49,1,7,.45,10.48H860.52c-0.12-.93-0.28-1.85-0.36-2.79C857.28,407.37,827.07,383.19,791.28,388.25Z" transform="translate(-295.27 -259.23)"/><path class="cls-2" d="M738,423c2,5.9,2.2,12.06,3.53,18,0.1,4.18-.15,8.41.34,12.55,2.78,23.46,19.82,43,43,49.49a59.74,59.74,0,0,0,62.37-20c8.78-10.89,12.54-23.47,13.32-37.14h21.76c0.75,17.13-4.46,32.57-14.17,46.47-33,47.31-103.45,46.58-135.58-1.29-0.75-1.11-1.58-2.19-2.37-3.28a113.45,113.45,0,0,1-7.92-18.55c-2-5.76-2.12-11.82-3.42-17.69-0.1-4.18.16-8.41-.34-12.54-5.28-42.64-53.92-65.64-90.43-42.55-20.42,12.92-29.14,32-27.69,55.89-1.76,12.35-5.08,24.22-11.21,35.2-5.76,8.24-11.94,16.08-20,22.33a82.25,82.25,0,0,1-119.38-19.15c-0.67-1-1.42-2-2.14-2.95a113.45,113.45,0,0,1-7.92-18.55c-2-5.76-2.13-11.82-3.42-17.69,0-1.75-.11-3.5-0.1-5.26,0.24-38.92-37.32-67.16-75.09-56.78-19.65,5.4-42.79,23.77-43.66,57.11H295.33c-1.15-39,29.91-75.47,68.88-80.42,34.77-4.42,62.14,7.95,81.95,36.68,0.46,0.67,1,1.28,1.49,1.92a162.41,162.41,0,0,1,7.8,18.13c2,5.9,2.2,12.06,3.53,18,0.1,4.18-.16,8.42.34,12.55,5.29,43.64,56.17,66.43,92.51,41.27,19-13.17,27.08-31.79,25.62-54.61q1.46-7.3,2.94-14.6c1.51-7.35,5.32-13.79,8.25-20.57,5.81-8.21,12-16.05,20-22.31A82.25,82.25,0,0,1,728,401.9c0.68,1,1.42,2,2.15,2.95A162.41,162.41,0,0,1,738,423Z" transform="translate(-295.27 -259.23)"/><path class="cls-3" d="M722.23,469.27a113.45,113.45,0,0,0,7.92,18.55c-9.3,14.31-21.33,25.55-37.13,32.6-37.9,16.89-83.21,2.58-103.89-32.83,6.13-11,9.45-22.85,11.21-35.2,0.11,0.53.28,1,.34,1.58,4.21,34,38,57.55,71.59,49.86C697.9,498,715,478.76,718.81,451.59,720.11,457.45,720.23,463.51,722.23,469.27Z" transform="translate(-295.27 -259.23)"/><path class="cls-4" d="M505.92,388.74C480,394.53,462.88,413.63,459,441c-1.33-6-1.55-12.14-3.53-18a162.41,162.41,0,0,0-7.8-18.13c9.61-14.81,22.13-26.23,38.62-33.24,37.51-15.92,82.05-1.41,102.37,33.44-2.92,6.78-6.74,13.22-8.25,20.57q-1.49,7.29-2.94,14.6a15.18,15.18,0,0,1-.34-1.58C572.89,404.82,539.33,381.29,505.92,388.74Z" transform="translate(-295.27 -259.23)"/><path class="cls-5" d="M439.72,469.27a113.45,113.45,0,0,0,7.92,18.55c-9.24,14.18-21.13,25.36-36.76,32.42-49.88,22.5-107.63-9.19-114.94-63.07a53.76,53.76,0,0,1-.61-10.5h22.11c0.06,0.67.13,1.34,0.16,2a59.34,59.34,0,0,0,72.93,55c24.82-5.7,42-25.25,45.76-52.05C437.59,457.45,437.72,463.51,439.72,469.27Z" transform="translate(-295.27 -259.23)"/></g><path class="cls-6" d="M810.16,459.64c-2.53.28-5,.38-7.5,0.81a27.55,27.55,0,0,0-5.48,1.35c-2.63,1.05-5.35.55-8.16,0.7a1.65,1.65,0,0,1,1.28-.79,42.16,42.16,0,0,1,6.34-1.58,1.06,1.06,0,0,0,1.14-1.14q0-11.17,0-22.34a1.11,1.11,0,0,0-1.17-1.14,55.14,55.14,0,0,1-6.43-1.71c-1.94-.61-1.94-0.61-1.94,1v25.64c0,0.32,0,.64,0,1,0.07,0.78-.38,1.11-1.32,1.05-0.47,0-1,0-1.43,0a0.63,0.63,0,0,1-.79-0.64c0-.67-0.11-1.34-0.11-2q0-13.09,0-26.18c0-1.7.06-3.4,0.1-5.09,0-.28.1-0.62-0.28-0.76a1,1,0,0,0-.89.33,4.68,4.68,0,0,0-2,4.09c0,9.08,0,18.16,0,27.24v1.06c0,2-.17,2.16-2.66,2-0.68-.05-0.86-0.28-0.87-0.8-0.28-9.65,0-19.29-.13-28.94,0-3.92,2.26-6.57,6.4-8.32,2-.86,4,0.09,4,1.91,0,0.92,0,1.85,0,2.77a1.33,1.33,0,0,0,1.22,1.4,78.43,78.43,0,0,0,10.26,2.73,1.67,1.67,0,0,1,1.58,2q0,10.43,0,20.86c0,0.78,0,1.56,0,2.34a0.83,0.83,0,0,0,1.08,1c0.86-.09,2.07.3,2.16-1,0-.32,0-0.64,0-1,0-9,0-17.95,0-26.92a2.25,2.25,0,0,1,1.71-2.35,13.54,13.54,0,0,0,2.71-1.46c1.94-1.29,3.26-2.75,2.95-5a44.43,44.43,0,0,1-.06-4.68,1.41,1.41,0,0,1,1.17-1.56c1-.33,1.84-0.6,2.75.1a16.63,16.63,0,0,1,5.59,7.19,12.1,12.1,0,0,1,.81,4.4q0,17.18,0,34.37c0,0.5.56,1.52-.83,1.39-2.25-.21-2.66,0-2.66-1.53q0-17.08,0-34.16a11.57,11.57,0,0,0-2.88-7.56l-0.37,0v1.88q0,19.63,0,39.26c0,0.5.33,1.2-.42,1.44a5,5,0,0,1-2.69,0c-0.58-.14-0.41-0.65-0.41-1,0-2.52,0-5,0-7.56V428.67c-1.31.76-2.43,1.38-3.5,2a1,1,0,0,0-.28,1q0,13.3,0,26.6a1,1,0,0,0,1.25,1.1A1,1,0,0,1,810.16,459.64Z" transform="translate(-295.27 -259.23)"/><path d="M354.37,432.15h-1.91a10.26,10.26,0,0,0-1.57.12,4.81,4.81,0,0,0-1.52.51v6.12H347V422.59h8.59a6.43,6.43,0,0,1,2.06.32,4.68,4.68,0,0,1,1.63.93,4.18,4.18,0,0,1,1.07,1.51,5.19,5.19,0,0,1,.38,2.06,4.53,4.53,0,0,1-1,3,5.14,5.14,0,0,1-2.78,1.62l1.27,2.6q0.4,0.57.68,0.92a3.62,3.62,0,0,0,.55.56,1.52,1.52,0,0,0,.55.28,2.64,2.64,0,0,0,.68.08l0.77,0v2.43q-0.7,0-1.41,0a4.8,4.8,0,0,1-1.37-.28,3.9,3.9,0,0,1-1.25-.77,4.62,4.62,0,0,1-1.05-1.49Zm-5-1.77a3.93,3.93,0,0,1,1.51-.54,12.19,12.19,0,0,1,1.57-.1h3.11a3.22,3.22,0,0,0,2-.58,2.22,2.22,0,0,0,.77-1.88,2.34,2.34,0,0,0-.22-1.06,1.93,1.93,0,0,0-.59-0.7,2.43,2.43,0,0,0-.87-0.39,4.76,4.76,0,0,0-1.09-.12h-6.19v5.39Z" transform="translate(-295.27 -259.23)"/><path d="M365.36,438.91V422.59h2.34v16.31h-2.34Z" transform="translate(-295.27 -259.23)"/><path d="M371.09,422.59h8.3a7.28,7.28,0,0,1,3.07.64,7.62,7.62,0,0,1,2.43,1.75,8.11,8.11,0,0,1,1.6,2.57,8.44,8.44,0,0,1,.58,3.13,8.69,8.69,0,0,1-.64,3.26,8.88,8.88,0,0,1-1.77,2.8,6.64,6.64,0,0,1-2.36,1.68,7.73,7.73,0,0,1-2.84.48h-6V425h-1.29Zm4.68,13.91h3.7a5,5,0,0,0,3.8-1.69,5.62,5.62,0,0,0,1-1.8,6.3,6.3,0,0,0,.37-2.16,7.09,7.09,0,0,0-.35-2.24,5.62,5.62,0,0,0-1-1.87,4.92,4.92,0,0,0-1.65-1.28,5.09,5.09,0,0,0-2.24-.47h-3.65v11.5Z" transform="translate(-295.27 -259.23)"/><path d="M393.2,436.5h10.06v2.41H390.81V422.59H402.3V425h-9.1v5a4,4,0,0,1,1.51-.53,12.37,12.37,0,0,1,1.57-.1h3.56v2.41h-3.56a10.2,10.2,0,0,0-1.56.12,4.82,4.82,0,0,0-1.52.51v4.14Z" transform="translate(-295.27 -259.23)"/><path d="M345.87,460.18a4.46,4.46,0,0,1-.56,2.22,5.11,5.11,0,0,1-1.53,1.68,7.4,7.4,0,0,1-2.31,1.06,10.71,10.71,0,0,1-2.89.37,7.67,7.67,0,0,1-1.87-.23,9,9,0,0,1-1.8-.66,8.78,8.78,0,0,1-1.65-1.06,8.62,8.62,0,0,1-1.39-1.42l1.71-1.6a11.28,11.28,0,0,0,.79.84,6.18,6.18,0,0,0,1.08.83,6.5,6.5,0,0,0,1.4.63,5.62,5.62,0,0,0,1.74.25,9,9,0,0,0,1.77-.17,5.68,5.68,0,0,0,1.55-.53,3.23,3.23,0,0,0,1.09-.92,2.46,2.46,0,0,0,0-2.75,2.44,2.44,0,0,0-1.1-.73,5.73,5.73,0,0,0-1.55-.27q-0.88,0-1.75,0a7.92,7.92,0,0,1-4.48-1,3.59,3.59,0,0,1-1.53-3.17,4.35,4.35,0,0,1,.45-1.91,5.2,5.2,0,0,1,1.25-1.64,6.17,6.17,0,0,1,1.9-1.14,6.65,6.65,0,0,1,2.42-.43,10.42,10.42,0,0,1,3.48.57,8.41,8.41,0,0,1,3.08,2l-1.49,1.75a15,15,0,0,0-1.24-.9,6.62,6.62,0,0,0-1.17-.6,5.79,5.79,0,0,0-1.24-.33,9.56,9.56,0,0,0-1.43-.1,3.88,3.88,0,0,0-1.31.22,3.63,3.63,0,0,0-1.07.59,2.8,2.8,0,0,0-.72.86,2.14,2.14,0,0,0-.26,1,1.7,1.7,0,0,0,.15.71,1.46,1.46,0,0,0,.55.6,3.23,3.23,0,0,0,1.06.42,7.93,7.93,0,0,0,1.72.15,15.76,15.76,0,0,1,3.53.33,5.76,5.76,0,0,1,2.2,1,3.28,3.28,0,0,1,1.13,1.53A6.18,6.18,0,0,1,345.87,460.18Z" transform="translate(-295.27 -259.23)"/><path d="M351.75,465.15h-2.38V448.83h2.38l0,6.69a4.15,4.15,0,0,1,1-.34,5.71,5.71,0,0,1,1-.1,9.51,9.51,0,0,1,1,.08l1.44,0.16,1.54,0.16q0.77,0.08,1.31.08a7.47,7.47,0,0,0,1.09-.09,4.06,4.06,0,0,0,1.12-.33v-6.32h2.38v16.31h-2.38v-7.59a4.08,4.08,0,0,1-1.11.33,7.42,7.42,0,0,1-1.09.09q-0.55,0-1.31-.08l-1.54-.16-1.44-.16a9.72,9.72,0,0,0-1-.08,5.68,5.68,0,0,0-1,.1,4.13,4.13,0,0,0-1,.34v7.22Z" transform="translate(-295.27 -259.23)"/><path d="M372.72,448.55h2.62l7.85,16.6h-2.67l-1.07-2.38h-5a11.48,11.48,0,0,0-2,.15,7.83,7.83,0,0,0-1.48.39,4.11,4.11,0,0,0-1,.52,1.71,1.71,0,0,0-.5.55l-0.42.77h-2.58l7.06-14.59Zm5.66,11.81-3.56-6.89-3.61,7.81a3.85,3.85,0,0,1,1.44-.64,10.72,10.72,0,0,1,2.71-.27h3Z" transform="translate(-295.27 -259.23)"/><path d="M393.63,458.39h-1.91a10.26,10.26,0,0,0-1.57.12,4.81,4.81,0,0,0-1.52.51v6.12h-2.38V448.83h8.59a6.43,6.43,0,0,1,2.06.32,4.68,4.68,0,0,1,1.63.93,4.18,4.18,0,0,1,1.07,1.51,5.19,5.19,0,0,1,.38,2.06,4.53,4.53,0,0,1-1,3,5.14,5.14,0,0,1-2.78,1.62l1.27,2.6q0.4,0.57.68,0.92a3.62,3.62,0,0,0,.55.56,1.52,1.52,0,0,0,.55.28,2.64,2.64,0,0,0,.68.08l0.77,0v2.43q-0.7,0-1.41,0a4.8,4.8,0,0,1-1.37-.28,3.9,3.9,0,0,1-1.25-.77,4.62,4.62,0,0,1-1.05-1.49Zm-5-1.77a3.93,3.93,0,0,1,1.51-.54,12.19,12.19,0,0,1,1.57-.1h3.11a3.22,3.22,0,0,0,2-.58,2.22,2.22,0,0,0,.77-1.88,2.34,2.34,0,0,0-.22-1.06,1.93,1.93,0,0,0-.59-0.7,2.43,2.43,0,0,0-.87-0.39,4.76,4.76,0,0,0-1.09-.12h-6.19v5.39Z" transform="translate(-295.27 -259.23)"/><path d="M407,462.74h10.06v2.41H404.62V448.83h11.48v2.41H407v5a4,4,0,0,1,1.51-.53,12.37,12.37,0,0,1,1.57-.1h3.56V458h-3.56a10.2,10.2,0,0,0-1.56.12,4.82,4.82,0,0,0-1.52.51v4.14Z" transform="translate(-295.27 -259.23)"/><path d="M482.95,447.08a6.65,6.65,0,0,1-2.15,3.77,6,6,0,0,1-3.86,1.31,6.15,6.15,0,0,1-5.35-3.17q-0.19-.4-0.34-0.76a5.06,5.06,0,0,1-.23-0.94,48,48,0,0,1,0-8.21,5,5,0,0,1,.57-1.68,6,6,0,0,1,2-2.18,5.75,5.75,0,0,1,3.36-1,5.69,5.69,0,0,1,4,1.51,6.7,6.7,0,0,1,2,3.71H480.2a3.91,3.91,0,0,0-1.15-1.82,3.33,3.33,0,0,0-2.11-.74,3.5,3.5,0,0,0-1.57.38,3.3,3.3,0,0,0-1.08.91,3,3,0,0,0-.67,1.47,21.85,21.85,0,0,0-.19,3.55,21.27,21.27,0,0,0,.19,3.53,3,3,0,0,0,.67,1.49,3.05,3.05,0,0,0,1.08.89,3,3,0,0,0,1.57.4,3.49,3.49,0,0,0,3.27-2.41h2.74Z" transform="translate(-295.27 -259.23)"/><path d="M491.38,450.9h0a2.06,2.06,0,0,1-1.05.94,4.89,4.89,0,0,1-1.94.31,4.36,4.36,0,0,1-3.14-1.11,3.53,3.53,0,0,1-1.16-2.72,3.62,3.62,0,0,1,1-2.63,4,4,0,0,1,3-1.09h3.39v-1.33q0-1.67-2.5-1.62a4.28,4.28,0,0,0-1.44.2,1.77,1.77,0,0,0-.87.78l-1.92-1.51a4.68,4.68,0,0,1,4.11-1.83,6.35,6.35,0,0,1,3.67.9,3.7,3.7,0,0,1,1.39,3.24V452h-2.44V450.9Zm0-4.21h-2.94q-2.14,0-2.11,1.51a1.35,1.35,0,0,0,.55,1.09,2.51,2.51,0,0,0,1.75.5,4.18,4.18,0,0,0,2.17-.37,2.15,2.15,0,0,0,.58-1.82v-0.91Z" transform="translate(-295.27 -259.23)"/><path d="M497.38,439.45h2.44v1.33h0.05a4,4,0,0,1,5.72-.52l-1.78,2.18a2.52,2.52,0,0,0-1.61-.63,2.26,2.26,0,0,0-1.61.63,2.51,2.51,0,0,0-.77,2V452h-2.44V439.45Z" transform="translate(-295.27 -259.23)"/><path d="M507.38,448.18a5,5,0,0,0,3.85,1.61,3.18,3.18,0,0,0,1.73-.42,1.33,1.33,0,0,0,.67-1.19,1.05,1.05,0,0,0-.4-0.94,2.06,2.06,0,0,0-1.09-.3l-2.16-.19a4,4,0,0,1-2.5-1.07,3.28,3.28,0,0,1-1-2.5,3.44,3.44,0,0,1,1.33-2.91,5.14,5.14,0,0,1,3.21-1,9.52,9.52,0,0,1,1.51.11,7.38,7.38,0,0,1,1.26.34,7.13,7.13,0,0,1,2,1.27l-1.52,1.83a7.55,7.55,0,0,0-1.49-.87,4.86,4.86,0,0,0-1.79-.31,2.37,2.37,0,0,0-1.61.42,1.39,1.39,0,0,0-.48,1.09,0.86,0.86,0,0,0,.36.74,2.07,2.07,0,0,0,1.25.45l2,0.16a3.73,3.73,0,0,1,2.75,1.19,4.1,4.1,0,0,1,.79,2.58,3.3,3.3,0,0,1-1.44,2.82,6.11,6.11,0,0,1-3.6,1,7.6,7.6,0,0,1-5.36-2.25Z" transform="translate(-295.27 -259.23)"/><path d="M518.92,434.37h2.44v6.41h0a3.87,3.87,0,0,1,3.16-1.49,4.1,4.1,0,0,1,2.76,1.1,4.34,4.34,0,0,1,1.3,3.27V452h-2.44v-7.49a2.75,2.75,0,0,0-.68-2,2.27,2.27,0,0,0-1.72-.7,2.31,2.31,0,0,0-1.74.7,2.72,2.72,0,0,0-.69,2V452h-2.44V434.37Z" transform="translate(-295.27 -259.23)"/><path d="M538.62,450.9h0a2.06,2.06,0,0,1-1.05.94,4.89,4.89,0,0,1-1.94.31,4.36,4.36,0,0,1-3.14-1.11,3.53,3.53,0,0,1-1.16-2.72,3.62,3.62,0,0,1,1-2.63,4,4,0,0,1,3-1.09h3.39v-1.33q0-1.67-2.5-1.62a4.28,4.28,0,0,0-1.44.2,1.77,1.77,0,0,0-.87.78l-1.92-1.51a4.68,4.68,0,0,1,4.11-1.83,6.35,6.35,0,0,1,3.67.9,3.7,3.7,0,0,1,1.39,3.24V452h-2.44V450.9Zm0-4.21h-2.94q-2.14,0-2.11,1.51a1.35,1.35,0,0,0,.55,1.09,2.51,2.51,0,0,0,1.75.5,4.18,4.18,0,0,0,2.17-.37,2.15,2.15,0,0,0,.58-1.82v-0.91Z" transform="translate(-295.27 -259.23)"/><path d="M544.62,439.45h2.44v1.33h0.05a4,4,0,0,1,5.72-.52l-1.78,2.18a2.52,2.52,0,0,0-1.61-.63,2.26,2.26,0,0,0-1.61.63,2.51,2.51,0,0,0-.77,2V452h-2.44V439.45Z" transform="translate(-295.27 -259.23)"/><path d="M555.66,446.69a3,3,0,0,0,.84,2.3,2.76,2.76,0,0,0,2.06.8,3.6,3.6,0,0,0,2.66-1.22l1.77,1.56a5.66,5.66,0,0,1-4.38,2,6.14,6.14,0,0,1-1.88-.29,4.51,4.51,0,0,1-.89-0.42,4.28,4.28,0,0,1-.86-0.57,5,5,0,0,1-1.25-2,8,8,0,0,1-.53-3.15,9,9,0,0,1,.46-3.1,5.41,5.41,0,0,1,1.17-2,4.35,4.35,0,0,1,1.63-1.07,5.08,5.08,0,0,1,1.76-.33,5,5,0,0,1,3.53,1.42,5.24,5.24,0,0,1,1.49,3.9v2.08h-7.59Zm5.15-2.08a3.28,3.28,0,0,0-.76-2.23,2.64,2.64,0,0,0-3.62,0,3.44,3.44,0,0,0-.76,2.23h5.15Z" transform="translate(-295.27 -259.23)"/><path d="M652,423.92v12.53a7,7,0,0,1-.39,2.48,4,4,0,0,1-1.28,1.66,6,6,0,0,1-3.81,1.16,6,6,0,0,1-3.82-1.07,5,5,0,0,1-1.64-3.33h4.62a0.88,0.88,0,0,0,.95,1,0.86,0.86,0,0,0,.81-0.4,2.73,2.73,0,0,0,.24-1.32v-1.93a3.51,3.51,0,0,1-2.84,1.58,3.28,3.28,0,0,1-2.86-1.72,8.41,8.41,0,0,1-1.08-4.53,8.69,8.69,0,0,1,1.08-4.57,3.24,3.24,0,0,1,2.83-1.77,2.43,2.43,0,0,1,1.4.41,5.58,5.58,0,0,1,1.34,1.45l-0.09-1.6H652Zm-4.38,6q0-2.64-1-2.64t-1.09,2.57q0,2.65,1.06,2.65T647.66,430Z" transform="translate(-295.27 -259.23)"/><path d="M659,420.14a2.52,2.52,0,0,1-.78,1.85,2.61,2.61,0,0,1-1.86.77,2.55,2.55,0,0,1-1.87-.78,2.62,2.62,0,0,1-.77-1.87,2.53,2.53,0,0,1,.77-1.86,2.6,2.6,0,0,1,1.86-.77A2.64,2.64,0,0,1,659,420.14Zm-0.38,16h-4.53V423.92h4.53v12.18Z" transform="translate(-295.27 -259.23)"/><path d="M671.51,423.92v12.53a7,7,0,0,1-.39,2.48,4,4,0,0,1-1.29,1.66,6,6,0,0,1-3.81,1.16,6,6,0,0,1-3.82-1.07,5,5,0,0,1-1.64-3.33h4.62a0.88,0.88,0,0,0,.95,1,0.87,0.87,0,0,0,.81-0.4,2.75,2.75,0,0,0,.24-1.32v-1.93a3.51,3.51,0,0,1-2.84,1.58,3.28,3.28,0,0,1-2.86-1.72,8.42,8.42,0,0,1-1.08-4.53,8.7,8.7,0,0,1,1.08-4.57,3.24,3.24,0,0,1,2.83-1.77,2.42,2.42,0,0,1,1.4.41,5.58,5.58,0,0,1,1.34,1.45l-0.09-1.6h4.56Zm-4.38,6q0-2.64-1-2.64t-1.09,2.57q0,2.65,1.06,2.65T667.13,430Z" transform="translate(-295.27 -259.23)"/><path d="M622.27,459.66l4.42,0.09a5.39,5.39,0,0,1-1.84,3.21,5.62,5.62,0,0,1-3.58,1.08,5.29,5.29,0,0,1-4.1-1.62,6.49,6.49,0,0,1-1.47-4.5,6.93,6.93,0,0,1,1.59-4.72,5.17,5.17,0,0,1,4.1-1.84,5,5,0,0,1,4,1.77,7.13,7.13,0,0,1,1.49,4.72l0,0.8h-6.62q0.08,1.87,1.06,1.87A1,1,0,0,0,622.27,459.66Zm0.1-3.45a2.29,2.29,0,0,0-.08-0.62,1.6,1.6,0,0,0-.22-0.48,1.13,1.13,0,0,0-.33-0.32,0.77,0.77,0,0,0-.42-0.12,0.89,0.89,0,0,0-.77.43,1.94,1.94,0,0,0-.29,1.11h2.11Z" transform="translate(-295.27 -259.23)"/><path d="M634.93,459.81V464l-0.71.06-0.51,0a4.9,4.9,0,0,1-3.39-1.22,5.89,5.89,0,0,1-1.5-2.25,7.83,7.83,0,0,1-.57-2.94,6.44,6.44,0,0,1,1.64-4.5,5.34,5.34,0,0,1,4.12-1.79h0.37l0.54,0v4a1.93,1.93,0,0,0-2,2.19,2.74,2.74,0,0,0,.5,1.62,1.49,1.49,0,0,0,1.21.67h0.14Z" transform="translate(-295.27 -259.23)"/><path d="M647.47,457.88a6.31,6.31,0,0,1-1.56,4.48,5.42,5.42,0,0,1-4.17,1.67,5.21,5.21,0,0,1-4.09-1.7,7.73,7.73,0,0,1,0-9.23,5.13,5.13,0,0,1,4.07-1.76,5.27,5.27,0,0,1,4.19,1.75A7,7,0,0,1,647.47,457.88Zm-4.38-.15a7.49,7.49,0,0,0-.09-1.22,4,4,0,0,0-.26-0.94,1.73,1.73,0,0,0-.41-0.6,0.77,0.77,0,0,0-.53-0.21,1.07,1.07,0,0,0-.92.81,5,5,0,0,0-.35,2.13,5.1,5.1,0,0,0,.35,2.13,0.93,0.93,0,0,0,1.85,0A5.6,5.6,0,0,0,643.09,457.73Z" transform="translate(-295.27 -259.23)"/><path d="M659.93,463.78h-4.52v-6.44a2.87,2.87,0,0,0-.16-1.16,0.58,0.58,0,0,0-.57-0.33q-0.95,0-.95,1.79v6.14h-4.52V451.6h4.52c0,0.3,0,.58,0,0.83s0,0.49,0,.71l0,0.78q1.09-2.58,3.2-2.58a2.67,2.67,0,0,1,2.28,1.09,5,5,0,0,1,.82,3v8.3Z" transform="translate(-295.27 -259.23)"/><path d="M673,457.88a6.31,6.31,0,0,1-1.56,4.48,5.42,5.42,0,0,1-4.17,1.67,5.22,5.22,0,0,1-4.09-1.7,7.74,7.74,0,0,1,0-9.23,5.13,5.13,0,0,1,4.07-1.76,5.27,5.27,0,0,1,4.19,1.75A7,7,0,0,1,673,457.88Zm-4.38-.15a7.6,7.6,0,0,0-.09-1.22,4,4,0,0,0-.26-0.94,1.73,1.73,0,0,0-.41-0.6,0.77,0.77,0,0,0-.53-0.21,1.07,1.07,0,0,0-.92.81,5,5,0,0,0-.35,2.13,5.12,5.12,0,0,0,.35,2.13,0.93,0.93,0,0,0,1.85,0A5.6,5.6,0,0,0,668.61,457.73Z" transform="translate(-295.27 -259.23)"/><path d="M691.78,463.78h-4.52v-6.9q0-1.16-.69-1.16-1,0-1,1.89v6.16H681v-6.73q0-1.24-.77-1.24a0.82,0.82,0,0,0-.78.42,3.35,3.35,0,0,0-.23,1.48v6.06h-4.52V451.6h4.52v0.63a13.63,13.63,0,0,1-.07,1.4q1.21-2.29,3.14-2.29,2.18,0,3.22,2.52,0.91-2.52,3-2.52a3,3,0,0,1,2.48,1.16,4.81,4.81,0,0,1,.73,2.92v8.36Z" transform="translate(-295.27 -259.23)"/><path d="M699.13,468.89h-4.65l2-5.61-3.62-11.67h4.54l0.87,3.49q0.18,0.72.32,1.57t0.24,1.84L699,457.4q0.31-2.13.57-3.16l0.68-2.64h4.52Z" transform="translate(-295.27 -259.23)"/><path class="cls-7" d="M626.48,317.13c0,12.63-11,22.88-24.59,22.88H569.58C556,340,545,329.77,545,317.13v-35c0-12.63,11-22.88,24.59-22.88h32.31c13.58,0,24.59,10.24,24.59,22.88v35Z" transform="translate(-295.27 -259.23)"/><path class="cls-8" d="M576.35,309.35h-8.69l-1.8,7.21h-2.57l8-31h1.3l8.08,31h-2.55Zm-8-2.66h7.37l-3.62-14.28L572,291.27l-0.08,1.15Z" transform="translate(-295.27 -259.23)"/><path class="cls-8" d="M599.17,300a7.77,7.77,0,0,1-1.45,2.42,6.76,6.76,0,0,1-2.15,1.63,6,6,0,0,1-2.63.59h-6.22v11.9h-2.47v-31h8.69a6,6,0,0,1,2.63.59,6.77,6.77,0,0,1,2.15,1.63,7.76,7.76,0,0,1,1.45,2.43,8.35,8.35,0,0,1,.53,3v3.84A8.26,8.26,0,0,1,599.17,300Zm-1.94-6.8a5.35,5.35,0,0,0-.34-1.93,5.14,5.14,0,0,0-.95-1.58,4.49,4.49,0,0,0-1.4-1.07,3.84,3.84,0,0,0-1.71-.39h-6.11V302h6.11a3.86,3.86,0,0,0,1.71-.39,4.58,4.58,0,0,0,1.4-1.06,5,5,0,0,0,.95-1.57,5.35,5.35,0,0,0,.34-1.93v-3.84Z" transform="translate(-295.27 -259.23)"/><path class="cls-8" d="M604.41,316.57v-31h2.47v31h-2.47Z" transform="translate(-295.27 -259.23)"/><line class="cls-9" x1="290.47" y1="129.27" x2="290.47" y2="120.37"/><line class="cls-9" x1="290.47" y1="114.52" x2="290.47" y2="105.63"/><line class="cls-9" x1="290.47" y1="98.92" x2="290.47" y2="90.03"/></svg>