<svg id="Layer_1" data-name="Layer 1" xmlns="http://www.w3.org/2000/svg" xmlns:xlink="http://www.w3.org/1999/xlink" viewBox="0 0 209.81 526.72"><defs><style>.cls-1{fill:url(#linear-gradient);}.cls-2{fill:url(#linear-gradient-2);}.cls-3{fill:url(#linear-gradient-3);}.cls-4{fill:url(#linear-gradient-4);}.cls-5{fill:url(#linear-gradient-5);}.cls-6{fill:url(#linear-gradient-6);}.cls-7{fill:url(#linear-gradient-7);}.cls-8{fill:url(#linear-gradient-8);}.cls-9{fill:url(#linear-gradient-9);}.cls-10{fill:url(#linear-gradient-10);}.cls-11{fill:url(#linear-gradient-11);}.cls-12{fill:url(#linear-gradient-12);}.cls-13{fill:url(#linear-gradient-13);}.cls-14{fill:url(#linear-gradient-14);}.cls-15{fill:url(#linear-gradient-15);}.cls-16{fill:url(#linear-gradient-16);}.cls-17{fill:url(#linear-gradient-17);}.cls-18{fill:url(#linear-gradient-18);}.cls-19{fill:url(#linear-gradient-19);}.cls-20{fill:url(#linear-gradient-20);}.cls-21{fill:url(#linear-gradient-21);}.cls-22{fill:url(#linear-gradient-22);}.cls-23{fill:url(#linear-gradient-23);}.cls-24{fill:url(#linear-gradient-24);}.cls-25{fill:url(#linear-gradient-25);}.cls-26{fill:url(#linear-gradient-26);}.cls-27{fill:url(#linear-gradient-27);}.cls-28{fill:url(#linear-gradient-28);}.cls-29{fill:url(#linear-gradient-29);}.cls-30{fill:url(#linear-gradient-30);}.cls-31{fill:url(#linear-gradient-31);}.cls-32{fill:url(#linear-gradient-32);}.cls-33{fill:url(#linear-gradient-33);}.cls-34{fill:url(#linear-gradient-34);}.cls-35{fill:#010101;stroke:#fff;stroke-miterlimit:10;opacity:0.53;}.cls-36{fill:url(#linear-gradient-35);}</style><linearGradient id="linear-gradient" x1="2155.68" y1="-155.37" x2="2577.42" y2="-155.37" gradientTransform="matrix(0.5, 0, 0, 0.51, -870.41, 432.8)" gradientUnits="userSpaceOnUse"><stop offset="0" stop-color="#cce0f4"/><stop offset="0.2" stop-color="#cae0f3"/><stop offset="0.27" stop-color="#c3deef"/><stop offset="0.33" stop-color="#b8dbe9"/><stop offset="0.37" stop-color="#a7d7e1"/><stop offset="0.4" stop-color="#91d1d5"/><stop offset="0.44" stop-color="#75cac7"/><stop offset="0.46" stop-color="#56c2b7"/><stop offset="0.47" stop-color="#4dc0b2"/><stop offset="0.75" stop-color="#67c292"/><stop offset="0.99" stop-color="#71c382"/></linearGradient><linearGradient id="linear-gradient-2" x1="2390.01" y1="-88.47" x2="2402.16" y2="-88.47" xlink:href="#linear-gradient"/><linearGradient id="linear-gradient-3" x1="2329.46" y1="-94.87" x2="2341.56" y2="-94.87" xlink:href="#linear-gradient"/><linearGradient id="linear-gradient-4" x1="2264.29" y1="-321.92" x2="2489.02" y2="-321.92" xlink:href="#linear-gradient"/><linearGradient id="linear-gradient-5" x1="2484.74" y1="-255.31" x2="2508.7" y2="-255.31" xlink:href="#linear-gradient"/><linearGradient id="linear-gradient-6" x1="2342.13" y1="-222.64" x2="2390.34" y2="-222.64" xlink:href="#linear-gradient"/><linearGradient id="linear-gradient-7" x1="2224.16" y1="-268.71" x2="2238.69" y2="-268.71" xlink:href="#linear-gradient"/><linearGradient id="linear-gradient-8" x1="2339.53" y1="-213.65" x2="2393.05" y2="-213.65" xlink:href="#linear-gradient"/><linearGradient id="linear-gradient-9" x1="2332.09" y1="-177.7" x2="2336.83" y2="-177.7" xlink:href="#linear-gradient"/><linearGradient id="linear-gradient-10" x1="2270.45" y1="-564.25" x2="2438.14" y2="-564.25" xlink:href="#linear-gradient"/><linearGradient id="linear-gradient-11" x1="2249.41" y1="-442.23" x2="2292.92" y2="-442.23" xlink:href="#linear-gradient"/><linearGradient id="linear-gradient-12" x1="2219.62" y1="-522.64" x2="2236.78" y2="-522.64" xlink:href="#linear-gradient"/><linearGradient id="linear-gradient-13" x1="2238.82" y1="-333.96" x2="2260.13" y2="-333.96" xlink:href="#linear-gradient"/><linearGradient id="linear-gradient-14" x1="2207.93" y1="207.99" x2="2226.93" y2="207.99" xlink:href="#linear-gradient"/><linearGradient id="linear-gradient-15" x1="2224.56" y1="195.79" x2="2241.26" y2="195.79" xlink:href="#linear-gradient"/><linearGradient id="linear-gradient-16" x1="2474.63" y1="189.11" x2="2498.02" y2="189.11" xlink:href="#linear-gradient"/><linearGradient id="linear-gradient-17" x1="2502.96" y1="209.44" x2="2520.52" y2="209.44" xlink:href="#linear-gradient"/><linearGradient id="linear-gradient-18" x1="2504.72" y1="-412.61" x2="2530.67" y2="-412.61" xlink:href="#linear-gradient"/><linearGradient id="linear-gradient-19" x1="2258.33" y1="-335.85" x2="2489.07" y2="-335.85" xlink:href="#linear-gradient"/><linearGradient id="linear-gradient-20" x1="2499.89" y1="-267.22" x2="2518.26" y2="-267.22" xlink:href="#linear-gradient"/><linearGradient id="linear-gradient-21" x1="2220.61" y1="-245.37" x2="2237.11" y2="-245.37" xlink:href="#linear-gradient"/><linearGradient id="linear-gradient-22" x1="2496.95" y1="-529.68" x2="2514.98" y2="-529.68" xlink:href="#linear-gradient"/><linearGradient id="linear-gradient-23" x1="2256.32" y1="205.94" x2="2473.48" y2="205.94" xlink:href="#linear-gradient"/><linearGradient id="linear-gradient-24" x1="2263.42" y1="242.02" x2="2465.76" y2="242.02" xlink:href="#linear-gradient"/><linearGradient id="linear-gradient-25" x1="2270.95" y1="237.48" x2="2455.9" y2="237.48" xlink:href="#linear-gradient"/><linearGradient id="linear-gradient-26" x1="2459.5" y1="240.34" x2="2503.32" y2="240.34" xlink:href="#linear-gradient"/><linearGradient id="linear-gradient-27" x1="2226.6" y1="240.65" x2="2270.19" y2="240.65" xlink:href="#linear-gradient"/><linearGradient id="linear-gradient-28" x1="2270.52" y1="253.98" x2="2460.94" y2="253.98" xlink:href="#linear-gradient"/><linearGradient id="linear-gradient-29" x1="2209.19" y1="-494.59" x2="2222.25" y2="-494.59" xlink:href="#linear-gradient"/><linearGradient id="linear-gradient-30" x1="2259.76" y1="-343.87" x2="2462.1" y2="-343.87" xlink:href="#linear-gradient"/><linearGradient id="linear-gradient-31" x1="2472.34" y1="-331.05" x2="2501.96" y2="-331.05" xlink:href="#linear-gradient"/><linearGradient id="linear-gradient-32" x1="2445.16" y1="-434.08" x2="2486.87" y2="-434.08" xlink:href="#linear-gradient"/><linearGradient id="linear-gradient-33" x1="2360.1" y1="-562.45" x2="2374.35" y2="-562.45" xlink:href="#linear-gradient"/><linearGradient id="linear-gradient-34" x1="2436.2" y1="-544.33" x2="2445.34" y2="-544.33" xlink:href="#linear-gradient"/><linearGradient id="linear-gradient-35" x1="93.07" y1="493.37" x2="201.23" y2="493.37" gradientUnits="userSpaceOnUse"><stop offset="0" stop-color="#9890c6"/><stop offset="1" stop-color="#2683c6" stop-opacity="0"/></linearGradient></defs><title>s4_car</title><g id="car_3_.tiff" data-name="car 3 .tiff"><path class="cls-1" d="M398.54,316.44c1,15.69-1.21,31.27,1.18,46.8,0.89,5.78,1.29,11.65-1,17.31a6.23,6.23,0,0,0-.21,2.17q-0.49,24.68-1,49.36c-0.27,14.39,2,28.69,1.68,43.1-0.34,16.08.52,32.28-3.44,48A130.4,130.4,0,0,1,384,552.37c-3,5.66-7.94,9.17-13.92,11.56-12.8,5.12-26.19,7.69-39.87,8.9-24.57,2.19-49,1.48-73.06-4.33a130.51,130.51,0,0,1-14.87-4.82,27.23,27.23,0,0,1-16-15c-6.59-14.79-12.26-29.74-12.56-46.27-0.34-19.51-.5-39,1.18-58.45,1.25-14.57.25-29.24,0-43.87-0.05-3.41-.11-6.83-0.22-10.24-0.14-4.35.19-8.69-1.23-13a19.41,19.41,0,0,1-.49-9.44c2.59-14.39,1.33-28.92,1.75-43.39,0.08-2.66.94-6.51-.45-7.7-1.71-1.45-5,.93-7.58,1.64-4,1.09-5.33,0-4.46-4.05,1.08-5,4.84-8.25,9-10.66,3-1.73,3.81-3.75,3.86-7,0.16-10.36.37-20.74,1.22-31.06,0.8-9.71-1.89-19.11-1.7-28.76,0.35-17.43.67-34.85,1.92-52.25,1.12-15.53,8.67-27.13,21.88-35.47,9.09-5.74,18.85-10.64,29.43-12,8.42-1.05,17-1.88,25.47-2.68,14.89-1.4,29.48.88,44.23,2.1a87.09,87.09,0,0,1,30.44,8.53,75.35,75.35,0,0,1,8.35,4.82c12.82,8.19,20.15,19.64,21.16,34.72,1.39,20.69,3,41.5,1,62.1-1.73,17.63.36,35,0,52.53a3.72,3.72,0,0,0,2.31,3.72,28.46,28.46,0,0,1,7.52,6,12.37,12.37,0,0,1,3.19,5.7c0.93,4.5-.36,5.71-4.7,4.41C404.26,317.87,401.76,316.73,398.54,316.44Zm-159,86.87c1.26,0.59,1.28,2,2,2.94,0.42,0.55.66,1.43,1.6,1.21a1.7,1.7,0,0,0,1.33-1.55,1.47,1.47,0,0,0-1-1.72c-1.27-.39-2.59-0.59-3.9-0.88-1.71-.27-0.51,1.06-0.88,1.53-0.77-3.09-3.82-3.38-6-4.7l4.18,0.53c0-3.35-.6-6.3-3.9-7.92,1.86,0.66,3.23.87,2.89-1.92-0.21-1.66-.05-3.34-1.35-4.67,1.94-.28,1.15-1.84,1.36-2.89,0.34-1.66-.2-3.91,1.14-4.85,2.38-1.67,1.92-3.72,1.65-5.81a133.36,133.36,0,0,1-.68-13.49c0-1.12.58-2.65-.93-3.24-1.26-.5-2.38-0.26-2.75,1.44-0.17.77-1,.34-1.56,0.12-1.52-.63-3-1.3-4.53-1.95,2.47-.35,4.39-4.62,7.15-0.73,0.6,0.84,2.6.35,2.65-1.7,0.07-3-.27-6.23.56-9.08,1.76-6.12,1.09-11.94-.82-17.81a37.86,37.86,0,0,1-1.14-5,9,9,0,0,0-3.22-5.92c2.55,0.22,1.2-1.48,1.09-2.34-0.61-4.49-2.89-8.65-2.72-13.3a19.3,19.3,0,0,1,.9,2.34c2.34,9.51,4.58,19,7,28.52,0.35,1.35-.45,3.66,2.19,3.9-0.09,1.19-.85,2.18-0.59,3.53,0.92,4.77,1.64,9.58,2.44,14.38,0.21,1.24-.13,2.93,2.07,2.65s1.25-1.87,1.14-2.86c-0.62-5.56-1.45-11.1-2.07-16.67-0.34-3.07-1.69-1.93-3.13-.89-0.07-2.09,4.32-2.85,1.76-5.68,1.3,0,1.52,2.6,3.27,1.32s0-2.3-.23-3.41c-0.41-1.75-1-3.45-1.51-5.18,1.8,1,1.63,2.88,2.12,4.43,0.74,2.35,1.48,3.78,4.64,2.81,3.9-1.2,8.1-1,12.2-1,5.33,0.07,10.68.58,16,.24,14.39-.92,28.78-1,43.18-0.5,5.08,0.18,10.15.85,15.22,0.78,8.31-.12,16.63-0.88,24.82,1.1a3.51,3.51,0,0,0,2.75-.55,1.7,1.7,0,0,0,1.64,2c1.14,0.17,1.24-.93,1.63-1.61s0.62-1.84,1.77-2.09c-2.22,2.87-1.33,5.36,1,7.7-1.19-.33-1.85-1.3-2.66-2.09h-2.39c0.43-1.84-1.08-1.9-2-1.53-3.47,1.45-6.84.35-10.28,0.05-7.64-.66-15.22-2.65-23-1.1,0.44-1.22-.3-1.32-1.27-1.38a356.91,356.91,0,0,0-47.11-.15c-1,.07-1.68.24-1.15,1.44-4.54-1-9.07-.39-13.65-0.19-6.72.3-13.34,3.14-20.18,0.86a1.31,1.31,0,0,0-1.58.69c-0.39.93,0.52,1.24,1.08,1.58a9.5,9.5,0,0,0,6.07,1.26c9-1.12,17.93-2.17,27-2.65,1.35-.07,1.83-0.4,1.16-1.67,2,0.12,3.64,1.23,5.76,1.14,11.26-.47,22.53-0.62,33.8-0.07,3.45,0.17,6.91.33,10.2-.95-1.37,2.37.79,1.59,1.67,1.69,6.85,0.77,13.71,1.54,20.58,2.17,4.33,0.39,8.82,1.91,12.84-1.17-1.09,2.08-1,4.4-1.4,6.62-0.13.76-.63,1.9,0.68,2,1.11,0.07,1-1.1,1.17-1.89,0.4-2.32.19-4.8,1.94-6.75a180.14,180.14,0,0,0-2.66,19.8c-0.07,1-1,2.58,1.19,2.79,1.93,0.18,1.76-1.21,1.95-2.39,0.7-4.31,1.32-8.63,2.17-12.91a9.71,9.71,0,0,0-.1-5.3c1.45,0.25,1.34-.81,1.66-1.7,0.87-2.4.61-5.15,2.35-7.27-0.27,1.43-.59,2.85-0.8,4.29-0.37,2.51-2,5-1.35,7.46A66.14,66.14,0,0,1,375.44,353c0,0.88-.33,2.13,1.15,2.28,0.92,0.1,2.11.42,2.38-1s1.18-.85,1.9-0.53c1.39,0.63,3,.85,4.5,2.38-2.69,0-4.53,4-7.36.19-0.7-.95-2.49-0.24-2.58,1.74-0.28,6-.7,11.89-1,17.84a2,2,0,0,0,.19,1.36c3,1.62,2.47,4.51,2.74,7.08,0.16,1.47.59,2.07,2,1.19-1.93,2.66-3.27,5.39-1,8.52-1.72,2.24-3.17,4.51-1,7.26-1.56.77-2.15,2.15-2.64,3.7-1.25,3.93-2.46,7.87-4.85,11.34s-2,6.1,1.23,8.61c-1.28-.19-2.56-0.44-2.51,1.53q0.34,12.93.64,25.86c0,2,1.45,2,2.86,1.89,1.19-.12,3.23.76,3.16-1.39-0.27-8.44,1.32-17-.95-25.33,2,1.54,2,3.77,2,6,0,4.51.36,9.05-.14,13.51-0.45,4.1,1.36,5.72,5,6.77,2.73,0.79,3.67.05,3.77-2.58q1-25,2-50c0.05-1.31.38-2.76-1.38-3.37,2.57-2.26,1.14-5.13,1.42-7.89l-3,.6c3.4-2.8,4.19-6.49,2.09-9.79a10,10,0,0,0,1-4.91c-0.17-20.45-.28-40.9-0.43-61.34,0-.87.37-1.88-0.6-2.68l-3.07,2c2.24-2.24,3.42-4.7,2.27-7.95a4.54,4.54,0,0,1,.23-3.2c2.08-4.2.42-8.33,0-12.54-2.57,8.09-4.71,16.24-6.85,24.39-0.4,1.51.36,1.69,1.59,1.34-3.93,2.26-2.81,6.86-4.82,10a6.62,6.62,0,0,1,.31-3.21c2.47-9.48,4.57-19.07,7.48-28.42,1.83-5.88,2.65-11.47.43-17.3,1.82,1.44,1.64,3.66,2.12,5.58,0.3,1.19.73,1.31,1.69,1-2,4.9.3,9.83-.1,14.75-0.11,1.4-.25,3.6,1.84,3.06,1.76-.45,5.21.6,4.93-3.26-0.5-6.87-.91-13.74-1.39-20.94l-2.36,1.48c3-3.38,2.34-7.39,2.09-11.35-0.42-6.55-.84-13.11-1.21-19.67-0.79-14-1.94-27.87-4-41.73a260.53,260.53,0,0,0-8.56-36.52c2,2,2.24,4.75,3,7.22,5.87,20.07,8.61,40.63,9.74,61.43,0.29,5.34.66,10.68,1,16,0.11,1.5.17,3.15,2.43,3.18,0.37-3.92,1.62-7.63,1.82-11.55,0.78-15.1.11-30.19-.44-45.27-0.18-4.92.43-10-2.28-14.58,1.42,0.28,1.49.27,1.39-1-0.82-10.25-4-19.5-11.74-26.9-8-7.63-17.73-12.34-27.93-16.46-6.39-2.58-13.17-1.93-19.59-3.35-22.84-5-45.59-2-68.2.61-11.55,1.32-22.13,7-31.7,13.93-11.54,8.29-17.23,19.46-17.6,33.39,1,0,1.2-1.14,2-1.49-0.21,2.47-2.57,4-2.58,6.72,0,5.84-.61,11.67-0.69,17.51-0.24,16.11-2.21,32.29,1.65,48.27,1.9-.64,2.08-2.12,2.21-3.79,1.06-13.7,1.4-27.47,3.66-41.05,1.11-6.65,1.39-13.46,3.81-19.87a13.94,13.94,0,0,1-.11,2.17c-5,24.51-5.78,49.44-7.59,74.26-0.22,3-.52,6,1.7,8.6-1.13-.6-2.36-1.83-2.45.85-0.21,6.54-.53,13.08-0.86,19.61-0.07,1.46.38,2,2,2.3,4.76,1.06,4.69,1.19,4.85-3.75,0.06-2.05.29-4.1,0.53-6.15,0.3-2.56.38-5.08-1-7.41l1.65,0.41c0.35-3.64,3.06-6.85,1.66-10.84a73.5,73.5,0,0,1-4-28.35c0.77-14.94,1.83-29.85,4.43-44.61,1.33-7.58,2.13-15.3,5.24-22.5-0.21,1.19-.35,2.39-0.63,3.57a318.53,318.53,0,0,0-8.17,70.2c-0.06,8,1.83,15.53,4.5,23.32,2.89-2.31,4.59-5.39,8-6.38-0.14.86-1.42,1.21-1.06,2.29a14.41,14.41,0,0,1-2.71,2.26c-2.79,1.36-3.4,3.18-2.67,6.18,1,4.23,2.28,8.46,2.44,12.86-2.27-4.56-1.9-9.83-4.07-14.95-1.78,4.6-3,8.61-1.33,13.11a96.35,96.35,0,0,1,2.63,10.19c-2.33-2.94-1.65-7-3.92-10.32a15.28,15.28,0,0,1-.31,2c-2,6.57,2.78,13.05.25,19.62-1.58.67-1,2.08-1,3.18q-0.44,31-.8,62.07c0,1.62,0,3.16,1.28,4.39a1.65,1.65,0,0,0-1.28,1.54c-0.82,3.88.74,6.71,3.91,8.88-1.38,0-2.16-1.62-3.77-1.33-0.11,3.12-1.19,6.46,2.52,8.51-1.89-.51-2.7,0-2.63,2.11,0.57,16.8.66,33.61,1.81,50.39,0.21,3.12,1.64,3.39,4.18,2.35,1.41-.57,2.87-1.87,4.56,0,0-6.81,0-13.26.07-19.71,0-1.65-.21-3.41,1.22-4.73-0.11,7.53-.19,15.06-0.36,22.59,0,1.81.44,2.68,2.49,2.57,1.8-.1,3.45.13,3.5-2.44,0.19-8.38.51-16.76,0.77-25.14,0.05-1.73-.72-2.22-2.28-1.31,2.43-2.08,3.2-4.7,2.05-7.59a34.36,34.36,0,0,0-2.94-4.93c1.67,0.62,1.36-.44,1.43-1.46C242.64,407.95,239.66,406.15,239.49,403.31ZM394.16,450.7a15.1,15.1,0,0,0-.44,9.69,19.54,19.54,0,0,0,.37-9.76c2,3.51,1.59,7.07.14,10.6-0.21.5-.94,0.85-0.57,1.5a1.35,1.35,0,0,0,1,.35A1.21,1.21,0,0,0,396,461.7c0.07-2.54.26-5.08,0.2-7.61a27.57,27.57,0,0,0-1.89-9.93A15.1,15.1,0,0,0,394.16,450.7Zm2.5-136.85c4.42,0,8.22,2.76,12.69,2.74a12.31,12.31,0,0,0-3.12-1.48c-4.32-1.62-9-2.16-13.07-4.58l16.9,4.67c-3.64-7.46-9.4-10.93-15.87-13.59-1.13-.46-1.87.13-2.51,1a5.22,5.22,0,0,0,1.63,8.07c-1,.72-2-0.86-3.18.12,1.81,2,5,1.2,6.64,3.18-2.31.38-1.55,2.17-1.54,3.47,0.09,8.64.28,17.28,0.4,25.92,0,3.54,0,7.08,0,10.61h0.95Q396.61,333.9,396.65,313.85ZM242.2,397.27l-3.44-.52a11.39,11.39,0,0,1,.35,1.87c0,2.5,1,4.2,3.74,4.56,0.64,0.08,1.31.13,1.52-.61,0.69-2.38-.24-4.14-2.31-5.42,1.22,0.19,2.42.57,2.45-1.43s-0.25-3.54-2.13-4.51c0.69-.13,1.86.05,1.81-0.83-0.21-3.62,1.49-7.54-1.53-10.78,1.63-.23,1.39-1.47,1.35-2.52-0.23-6.3-.55-12.6-0.73-18.9-0.05-1.85-.73-2.55-2.66-2.51s-2.09,1.28-2,2.67q0.44,8.35.93,16.7a4.49,4.49,0,0,0,2.09,3.65c-1.4.14-3.77-1.56-4,.72-0.34,3.39-1.25,7.21,2,10-1.19-.17-1.83.13-1.81,1.51A6.56,6.56,0,0,0,242.2,397.27Zm3.16,19.95c-0.46,5.54-.46,5.55,3.72,5.2,0.89-.08,2.12.35,2.29-1.1s-0.87-1.7-2-2.06c-1.42-.46-3.29-0.21-4-2,6.48,2.23,6.48,2.23,5.56-4.52a1.83,1.83,0,0,1,0-.36c0.23-3.44-2.67-2.71-4.41-2.81-2.22-.12-1.09,1.93-1.2,3A33,33,0,0,0,245.36,417.22Zm122.32,0.41c0-1.82.16-3.64,0.09-5.45,0-.92.53-2.63-1.34-2.27-1.43.28-3.71-.69-4.17,1.39-0.52,2.32-1.63,5.24-.32,7.05s3.75-.48,5.74-0.73c-1,1.92-3.15,1.6-4.83,2.15a1.7,1.7,0,0,0-1.36,1.51c-0.07.62-.05,1.33,0.75,1.39,1.7,0.13,3.62.62,5.06,0,1.16-.47.44-2.4,0.37-3.7C367.65,418.55,367.68,418.09,367.68,417.62Zm4.71-27.24c3.62-2,3.07-5.44,3.29-8.68,0.21-3.06-1.11-3.61-3.7-2.45,3.15-7,2.18-14.52,2.6-21.84,0.08-1.38-1.22-1.26-2.2-1.29-1.21,0-2.24.09-2.31,1.65-0.29,6.68-.63,13.37-0.93,20-0.07,1.62.71,1.91,2.05,1.13-2.65,2.33-2.54,5.43-2.56,8.53,0,4.25-.06,4.25,3.88,2.79-0.31,1.09-1.35,1.34-2.2,1.74-2.43,1.13-2.23,3.48-1.44,4.95s2.43-.34,3.72-0.62a2.38,2.38,0,0,0,1.28-.68,6.35,6.35,0,0,0,1-5.41C374.66,389.07,373.31,390.92,372.39,390.39ZM246,406.14a6.07,6.07,0,0,0,2.22-4.67c0.17-4.68.48-9.36,0.8-14,0.11-1.62.09-3.13-1.32-4.26a1.51,1.51,0,0,0,1.37-1.82q-0.84-11.84-1.69-23.69c-0.09-1.21-.57-2.11-2.09-1.93S244,357,244,357.94c0.3,6.93.68,13.87,0.91,20.8a7.48,7.48,0,0,0,1.26,3.29,1.2,1.2,0,0,0-1,1.34c0,7.18,0,14.37.09,21.55a2.79,2.79,0,0,0,.8,1.09c0.17,0.79-1.51,1.56-.41,2.11,1.48,0.75,3.3,1.35,4.95.76,1-.37.82-1.86,0.33-2.57-1.05-1.5-2.53-.94-3.92-0.29A3.48,3.48,0,0,1,246,406.14Zm119.52-.41c-1.26.38-3.15-.7-3.64,1.4-0.15.62,0,1.82,0.33,2,1.9,0.79,3.63-.18,5.39-0.57,0-1.76-2-1.68-2.21-2.93,0.8-.28,2.38,1.41,2.4-0.84,0.05-7.3.05-14.59,0.08-22.79-1.7,1.85-3.88,1.94-3.72,4.23C364.55,392.71,364.4,399.26,365.49,405.73ZM222.12,309.88a5.82,5.82,0,0,0,.78-1.22c0.86-2.59.61-5.27-1.26-7.12s-3.63.19-5.3,1a30.1,30.1,0,0,0-9.43,6.95c-1.14,1.32-2.34,2.69-2.33,4.67,3.29-.14,5.88-2,8.91-1.83-2.63,1.77-6.1,1.55-9.17,3.52,2.21,0.41,3.61-.52,5.11-0.9,4.23-1.07,8.27-2.86,12.71-3.11-2.63.73-3.42,2.35-3.45,5.07-0.19,20-.48,40.07-1,60.1-0.11,4.37.24,7.89,5.25,9.22a3,3,0,0,1,.95,1c-0.8-.32-1.61-0.59-2.38-1-3.56-1.73-3.69-1.69-3.59,2.06,0.63,23.47.29,47,2.7,70.38,0.87,8.44-1.52,18,6.69,24.68L222.38,480c1.39,12.62,2.37,24.7,5.11,36.57-3.55-11-4.31-22.4-5.61-33.73-0.71-6.14-.84-12.47-6.57-18.16,1,18.26-1.94,35.7,3.5,52.7-1.58-1.2-1.52-.43-1.28.93,1.71,9.68,6.39,18.35,9.7,27.48,5.34,14.75,19,17.65,32.07,21.06,1.38,0.36-.14-0.85,0-1.32a38.3,38.3,0,0,0,12,3.62,240.78,240.78,0,0,0,65.49.72c5.88-.76,11.9-1.23,16.79-5.14a2.35,2.35,0,0,0-1.2,2.49c4.54-.87,8.83-2.47,13.22-3.74,10.3-3,16.59-9.74,20.2-19.35,2-5.36,4.28-10.63,6.36-16A46.82,46.82,0,0,0,395,516.68l-1.61,1.73c5.64-17.15,3-34.77,3.12-52.26-4.76,8.49-7.34,17.28-5.54,27.06A20.66,20.66,0,0,1,389.29,506c0-4.19,1.85-8.33.37-12.58-0.57,4.15-1.44,8.25-1.8,12.38-0.23,2.7,1-.68,1.57.08-2.21,4.29-3.51,8.92-5.2,13.43-0.06-4,3.6-7.95,0-11.95,0.85,0,2.1,2,2.46-.11,0.83-4.86,1.95-9.73,1.73-15-2.11,1-2.55,3-3.95,4.12a7.64,7.64,0,0,1,2.19-4.1,11.34,11.34,0,0,0,2.8-10.66l-5.82,3.69c0.56-1.85,2.48-2.25,3.77-3.3a8.09,8.09,0,0,0,3.21-5.87c2.88-29.06,4.1-58.2,4.34-87.39,0-1,.81-2.59-1.24-2.83a7.14,7.14,0,0,0,1.53-5.09c-0.12-5-.1-10-0.18-15q-0.38-24.65-.82-49.29c0-1.34.61-3.21-1.58-3.53s-3.26-1.78-4.79-3.28c0,5.66-.06,10.83,0,16q0.08,29.22.18,58.43c0,1.8-.47,4,2.74,3-2.35,1.05-2.84,2.88-2.87,5.31-0.42,27.48-1.41,54.94-3.74,82.35-0.29,3.46-1.27,7-.5,10.48-0.86,1.5-1.31,3.26-2.81,4.36,0.53-1.61,1.39-3.19,1.55-4.84,0.79-8.37,1.35-16.75,2.11-25.12,0.19-2.07-1-1.8-2.22-1.66,0.4-1.21,2.76-.91,2.19-3.3l-8.09,3.59c2.46,1.25,4-.76,6-0.39a5.63,5.63,0,0,1-1.78,1.11c-3.92.64-4.5,3.06-4.37,6.51,0.25,6.51.06,13,0,19.56,0,1.76.3,3.78-2.21,4.35,0.39-.74,1.1-1.48,1.11-2.23,0.13-8.16.16-16.31,0.2-24.47,0-.82-0.35-1.55-1.31-1.22-2,.68-4.48.57-4.13,4,0.74,7.14,1,14.32,2.08,21.43,0.21,1.4.66,2.28,2.17,2.42-2.15,1.43-.93,2.8.15,4.06,1.25,1.46,2.36.5,3.47-.33s1.24-2.1,2.54-2.49a5.52,5.52,0,0,1-4.47,4.32c-1.7.3-2.53-1.16-3.24-2.51-1.05-2-10.59-3.58-12.29-2-0.71.64-.54,1.57-0.57,2.4-0.15,4.73-.24,9.47-0.41,14.2a4.23,4.23,0,0,0,1.28,3.64c-1.91.53-1.43,2.13-1.26,3.28,0.5,3.44-1.56,7.08.84,10.35-0.8.8-1.49,1.85-2.91,1.25,1.66-3.58,1-7.41,1.32-11.14,0.28-3.12-.58-4.12-4-4.08-30.35.34-60.71,0.72-91.06-.15-10-.29-9.89-0.14-9.76,9.64,0.05,3.79,1.45,5.64,5.24,6.63a134.09,134.09,0,0,0,28.38,3.89c23.5,1,47,1.75,70-4.83-1.41,1.82-3.65,1.94-5.61,2.4-14.62,3.45-29.56,3.84-44.49,3.82-15.67,0-31.36-.39-46.7-4.13-3.15-.77-6.69-1.13-8.7-4.28,1.41,0.43,1.34-.53,1.33-1.39,0-1.92,0-3.85-.15-5.77-0.12-1.72,1-4.3-.56-5s-2.57,2.08-4,3.08a2.66,2.66,0,0,1,1.07-2.24c4.34-2.24,3.61-6.14,3.48-9.85,0-1.34-.13-2.67-0.18-4-0.32-8.74-.32-8.69-9.29-8.56-1.83,0-2.83.47-3.65,2.22-1.61,3.45-3,3.55-6.17.94a15.08,15.08,0,0,1,2.09.7c1.54,0.77,2.31-.21,3-1.22,0.85-1.18,1.08-2.35-.43-3.28a2.06,2.06,0,0,0,2-1.75c1.24-7.68,1.76-15.44,2.29-23.19,0.18-2.62-2.51-2.53-4.06-2.78-2.05-.33-1.21,1.68-1.22,2.64-0.11,6.92-.05,13.85-0.13,20.78a7,7,0,0,0,1.23,4.43c-2.44-.69-2.13-2.7-2.13-4.47,0-6.78-.14-13.57.12-20.34,0.11-2.81-.67-4.6-3.35-5.55,0.94-.37,2.14.74,3.25-0.85l-8.48-3.8c0.22,2.57,2.19,2.38,2.82,3.53-2.2-.66-2.91.16-2.64,2.32,0.3,2.41.23,4.87,0.56,7.28,1.08,7.76-.08,15.86,3.7,23.2-2.25-1.85-2.55-5-4.86-6.83,1.55,0,1.67-.74,1.49-2.1-0.46-3.61-.78-7.25-1-10.88-1.56-26.33-2.91-52.68-2.8-79.07a6.23,6.23,0,0,0-1.43-4.33c2.33-.49,1.32-2.33,1.34-3.56q0.32-30.54.49-61.08c0-3.85.86-7.71-.1-12.09a5.46,5.46,0,0,1-3.44,1.51,10.13,10.13,0,0,0,1-1C224.35,309.26,223.06,309.71,222.12,309.88ZM277,418.34c0.76-2.7,1.88-5.37.69-8.88-3.13,5.17-7.89,4.83-12.49,4.83s-9.46.34-13-4.72a43.25,43.25,0,0,0,0,6c0.33,2.08.85,3.47,4,3.18,5.9-.55,11.91-0.16,17.87,0,1.1,0,2.12.56,3-.56a3.55,3.55,0,0,0,2.44,1.13,52.41,52.41,0,0,1-24.3,1.22c-0.89-.15-2.44-1.3-2.66.59s1.48,1.26,2.45,1.26q51.33,0.21,102.65.33c1,0,2.7.57,2.58-1.12-0.15-2.14-1.87-.85-2.84-0.7A53.93,53.93,0,0,1,331.36,419h3.69a17.59,17.59,0,0,1-.89-4.26c0.17-3.93-2-5.1-5.55-5.36-1.89-.14-2.66-0.1-2.4,2.19,0.41,3.56,1.85,6.14,5.28,7.53a7.14,7.14,0,0,1-7-6.14c0.95-3.14-2.06-5.62-1.51-8.69,1.35,2.68,3,4.5,6.1,2l-1.21,1.86c3.42,2.55,6.88,0,10.34.34a106.42,106.42,0,0,0,19.76,0c0.92-.09,3,0.44,2.79-1.4-0.17-1.29-1.87-.7-2.89-0.67-7.1.22-14.19,0.24-21.27-.18-2.57-.15-5.12-0.9-7.65.19a5.8,5.8,0,0,0,2.16-4.38q0.37-7.66.92-15.31a3.93,3.93,0,0,0-1.34-3.24c2.22-.6,1.33-2.37,1.25-3.64-0.34-5.59-.93-11.17-1.23-16.76-0.36-6.69-.27-6.69-7-7.21a2.1,2.1,0,0,1-.48-0.63,23.27,23.27,0,0,1,3.15,0c3.1,0.46,3.88-.78,3.37-3.66-0.78-4.43-1.21-8.91-1.86-13.37-0.36-2.43-.43-2.42-2.83-3.78a0.59,0.59,0,0,1-.2-0.54c1.76-3-1.2-2-2-2-10.69-.46-21.39-0.44-32.09-0.19-2.92.07-4.63,1.27-5,4.24-0.49,4.23-1.12,8.44-1.66,12.66-0.8,6.23-.79,6.23,5.49,6.57a3.57,3.57,0,0,1,.87.67,38.08,38.08,0,0,1-4.09,0c-2.34-.29-3.41.59-3.56,2.93-0.47,7-1.09,14.08-1.57,21.12-0.09,1.25-.65,2.73.88,3.66a4.75,4.75,0,0,0-.91,1.88c0.38,6.7.25,13.43,1.37,20.08a195.38,195.38,0,0,1-28.23.55c-0.79,0-1.95-.37-2.12.79-0.2,1.36,1.14,1,1.85,1.13,3.91,0.88,7.9.58,11.85,0.63,6.38,0.08,12.76.06,19.76,0.08l-3.26-3.3c2.26-.34,3.31,3.66,6,1.62l0.79,0c0.72,5-.74,9-5.48,11.52a13.56,13.56,0,0,0,2.85-7.38c0-1,.36-1.89-1.26-2-4-.28-6,1.22-6.52,5.08C278.65,415.76,278.64,417.42,277,418.34Zm14.93,28.41-0.82.13c0-7-.16-14.1.19-21.13,0.1-1.95-.14-2.28-1.9-2.28-11.45,0-22.9,0-34.35-.13-1.92,0-2.61.52-2.55,2.47q0.34,12.61.41,25.23c0,2.2.79,2.89,3.07,2.87,10.08-.08,20.16,0,30.24.07,1.13,0,2.36-.4,4.05.81H285.6c-9.71,0-19.42,0-29.12-.13-2.51,0-3.52.63-3.44,3.27q0.4,13.89.41,27.78c0,2.51.8,3.33,3.42,3.3q15.12-.16,30.24.1c2.76,0.05,3.63-.63,3.57-3.42-0.17-7.83,0-15.67,0-23.5a206.68,206.68,0,0,1,.7,23.71c0,2.21.37,3.28,3,3.23,7.84-.14,15.68-0.13,23.52.08,2.65,0.07,3.14-1,3.12-3.19-0.05-6.7,0-13.41.06-20.11,0-1.18-.33-2.45.81-4.14,0,8.55,0,16.45-.12,24.36,0,2.38.66,3.11,3.12,3.09,10.21-.09,20.42-0.11,30.62.13,3,0.07,3.5-1,3.52-3.53,0.08-9,.23-18,0.59-27,0.11-2.86-.72-3.8-3.68-3.77-10.08.11-20.16,0-30.24-.07-0.81,0-1.87.56-2.55-.79,11.17,0,22.22.08,33.27,0.1,1.55,0,3.29.46,3.33-2.13,0.14-8.77.4-17.54,0.67-26.31,0.05-1.62-.63-2.1-2.19-2.1q-17.36,0-34.73-.12c-2,0-1.81.64-1.75,2.36,0.25,7,.07,14.07.05,21.48-1-1.47-.65-2.72-0.65-3.89,0-5.12,0-10.24,0-15.36,0-3.14-1.18-4.7-4.63-4.64-6.72.12-13.44,0.07-20.16-.05-3.17-.06-4.51,1.16-4.46,4.31C292,434.11,291.93,440.43,291.92,446.75Zm13.94,62.7c16.42,0.05,32.84,0,49.25.22,2.76,0,3.7-.69,3.58-3.46-0.19-4.37-.07-8.77.16-13.15,0.13-2.45-.76-3.15-3.17-3.13-8.58.08-17.17,0-25.75,0-24.13-.08-48.26-0.1-72.39-0.3-3.14,0-4.09.84-3.86,3.91a94.66,94.66,0,0,1,.06,12.42c-0.16,2.84.92,3.45,3.61,3.44C273.51,509.3,289.68,509.4,305.85,509.45Zm40.87-120.9-11.56,0c-1.23,0-2.49-.22-2.57,1.7-0.18,4.25-.53,8.5-0.78,12.75-0.06,1,0,1.9,1.44,2.07a141.42,141.42,0,0,0,25.67.46c1.7-.11,2.25-1,2.23-2.64,0-3.89,0-7.8.26-11.68,0.14-2.19-.71-2.67-2.75-2.61C354.68,388.67,350.7,388.57,346.72,388.55ZM266,388.29c-3.85,0-7.71.08-11.56-.08-2.24-.09-3.15.54-3,2.87a70.9,70.9,0,0,1,.31,10.2c-0.19,3.1,1.2,4,4,4.1,7.7,0.13,15.39.44,23.07-.46,1.77-.21,2.38-0.75,2.27-2.43-0.27-4-.54-8-0.64-12,0-1.88-1-2.17-2.6-2.15C274,388.36,270,388.31,266,388.29Zm81.08-4c3.85,0,7.71-.05,11.55.07,2.2,0.07,3.18-.68,3.14-2.91-0.05-3.28,0-6.58.19-9.85,0.13-2.06-.8-2.42-2.61-2.41-8.2,0-16.4.07-24.6-.11-2.51-.05-2.93.94-2.72,3a73.47,73.47,0,0,1,.57,9.09c-0.06,2.51,1,3.15,3.3,3.1C339.65,384.18,343.38,384.26,347.11,384.27ZM266.3,368.89c-4.1,0-8.21.06-12.3-.08-2.07-.07-2.9.51-2.77,2.65a79.83,79.83,0,0,1,.06,9.12c-0.13,2.48.69,3.47,3.33,3.43,7.46-.1,14.91-0.06,22.37.07,2.49,0,3.57-.64,3.51-3.28a62.82,62.82,0,0,1,.57-9.46c0.27-2.13-.63-2.47-2.46-2.44C274.5,369,270.4,368.9,266.3,368.89ZM266.44,355l6.7,0c9.41,0,9.31,0,10.45-9.13,0.36-2.92-.62-3.94-3.45-4-8.69,0-17.37-.2-26.06-0.2-4.84,0-4.82.1-4.35,4.71a39,39,0,0,1,.31,4.73c-0.06,2.83.93,4.09,4.12,3.85C258.23,354.78,262.35,355,266.44,355Zm81.1-12.9V342c-3.23,0-6.45-.07-9.68,0-8.49.12-8.48,0.14-7.48,8.23a11.38,11.38,0,0,1,.13,2.18c-0.16,2.24.89,2.9,3.11,2.86,6.2-.1,12.4.07,18.61,0,3.45,0,7.84,1.46,10.08-.58s0.87-6.48,1.56-9.8c0.49-2.36-.64-2.74-2.56-2.73C356.72,342.19,352.13,342.15,347.54,342.14Zm-81.06,13.63-6.33,0c-10.06,0-10,0-9.1,9.79,0.19,2.18,1,2.58,3,2.56,6.21-.06,12.42,0,18.62,0,9.24,0,9.17,0,9.49-9.18,0.08-2.29-.39-3.3-3-3.19C274.93,355.94,270.7,355.78,266.48,355.77Zm80.34,12.6,6,0c9.5,0,9.38,0,9.91-9.34,0.15-2.65-.88-3-3.15-3-6.34.07-12.67,0-19,0-10.09,0-10,0-8.77,9.92,0.24,1.9.9,2.46,2.75,2.42C338.62,368.27,342.72,368.35,346.82,368.36ZM246.94,488.91c5.71,0,5.74,0,5.67-5.56-0.11-8.4-.47-16.8-0.32-25.19,0.07-3.91-2.23-3.36-4.75-3.57-3.12-.26-3.81,1.15-3.83,3.82a230.69,230.69,0,0,1-1.92,25.46c-0.6,5-.8,5,4.4,5h0.75Zm113.41-16.62H360q0,6.2,0,12.41c0,4.87-1.1,4.56,4.75,4.59,6.44,0,6.4,0,5.9-6.28q-1-12.72-1.89-25.45c-0.29-4.12-3.54-1.8-5.4-2.35s-3,.34-3,2.49C360.43,462.56,360.36,467.42,360.35,472.29ZM346.63,341.48v-0.1c4.72,0,9.44,0,14.16,0,3.38,0,4.47-1.14,4.12-4.94-0.28-3-2.46-.47-3.69-1-1-.4-2.21-0.1-3.32-0.23-7.64-.86-15.28-1.79-22.92-2.63-7.29-.81-7.18-0.8-6.13,6.15,0.33,2.18,1,2.78,3.25,2.69C336.94,341.3,341.79,341.47,346.63,341.48Zm-79.94-.35v0.09c4.85,0,9.71-.06,14.56.09,1.92,0.06,2.85-.22,3.2-2.38,1.19-7.27,1.32-7.05-6.23-6.5-9.53.7-18.93,2.81-28.55,2.35a1,1,0,0,0-1.17.49c-1.09,2.16,1.16,5.8,3.63,5.81ZM245,438.55h-0.7c0,3.77.3,7.57-.12,11.29s1.2,4.46,4.33,4c1.36-.2,3.51.93,3.47-1.86-0.12-8.74-.26-17.49-0.3-26.23,0-2.32-1.37-2.53-3.16-2.37s-3.59-.32-3.5,2.45C245.15,430.05,245,434.3,245,438.55Zm116.06,0.62h-0.36c0,3.9.27,7.83-.12,11.69-0.37,3.71,1.81,3.38,4.28,3.47s3.87-.16,3.7-3.26q-0.67-12.23-.67-24.48c0-2.84-1.57-2.75-3.51-2.88s-3.36.25-3.31,2.66C361.18,430.63,361.1,434.9,361.09,439.17Zm-0.24-28.9c-7.06,6-18.49,5.89-25.94-.07a12.86,12.86,0,0,0,.81,7.46c0.36,0.86.69,1.77,2.09,1.55,5.66-.87,11.36-0.08,17-0.28,5.53-.19,5.83-0.29,6-6C360.86,412.23,360.85,411.52,360.85,410.27Zm3.08-26.83c2.92-1.19,4.2-2.33,4.25-5.06,0.12-6.57.66-13.13,1-19.69,0.06-1.07.47-2.3-1.22-2.54s-2.12.87-2.22,2.21C365.17,366.49,364.58,374.61,363.93,383.44Zm-4.39,25.71c-7.85.91-15.36,0.46-23.19,0.14C340.85,415.67,355.34,415.62,359.54,409.15ZM253,408.8c4.71,6.4,10.77,4.51,16.17,4.6,3,0.05,6-.68,7.31-4.45A128.89,128.89,0,0,1,253,408.8Zm94.36-23.74c-4,0-7.93-.06-11.89,0-1,0-2.5-.47-2.61,1.18-0.13,1.83,1.47,1.29,2.42,1.29q11.89,0.11,23.78.08c1,0,2.56.42,2.45-1.32s-1.63-1.15-2.63-1.17C355,385.06,351.16,385.08,347.32,385.06Zm-81.07,2.27c4,0,7.93.05,11.89,0,0.89,0,2.21.31,2.15-1.24s-1.28-1.25-2.22-1.25q-12.08-.07-24.15-0.07c-0.88,0-2.23-.41-2.32,1-0.11,1.69,1.33,1.43,2.39,1.44C258.07,387.32,262.16,387.32,266.25,387.33Zm-25.35-47.79a31.63,31.63,0,0,0-2.2,14.22c0.08,1.74,1.62,1.08,2.61,1.17,1.28,0.12,1.76-.5,1.57-1.78C242.18,348.62,241.55,344.08,240.89,339.54Zm131.6,0.37q-1.05,6.8-2.11,13.6c-0.18,1.17.2,1.93,1.55,1.84,1.12-.08,2.69.53,2.71-1.48C374.69,349.16,374.42,344.48,372.5,339.91Zm23.32-38c0-8.46.08-16,0-23.46,0-1.05.73-3-.83-3-2.22,0-1.32,2.17-1.24,3.46,0.29,4.71.7,9.42,1.1,14.13C395.1,295.65,394.56,298.41,395.82,301.88Zm-177.9-1.4c0.5-8.58,2.13-17.13.77-25.76C217.72,283.29,217,291.86,217.92,300.48Zm-0.15,14c-0.82,12.59-1.33,25.24-.11,37.89ZM363.36,389c-1.36,4.76-1.45,9.56-1.49,14.36,0,0.7-.1,1.55.94,1.66,1.27,0.13,1.36-.8,1.32-1.67C363.89,398.54,363.62,393.76,363.36,389Zm-112.79-.33c-1.57,4.73-1.47,9.55-1.69,14.34,0,0.71,0,1.55,1,1.65,1.26,0.13,1.38-.79,1.34-1.67C251,398.19,250.78,393.42,250.57,388.65Zm123.25,8.59c-5.54,1.1-5.64,1.22-4.94,6C373.64,402.5,373.83,402.27,373.81,397.24Zm-28.33-68c5.79,0.45,11.46,2.35,17.36,1.47C357.19,328.73,351.37,328.68,345.49,329.23Zm-95,1.21c5.92,0.62,11.65-.89,17.45-1.5C262,328.48,256.15,328.27,250.48,330.44ZM218.24,444.9A37.69,37.69,0,0,0,216.67,461c0.09,0.8.3,1.46,1.27,1.45a1.4,1.4,0,0,0,1-.33c0.46-.65-0.26-1-0.51-1.5-1.75-3.6-1.32-7.34-.11-10.91A5.85,5.85,0,0,0,218.24,444.9ZM248,354.75l1.38-.08c-0.35-4.09.18-8.29-1.47-12.21l-1.13.13Zm118.6-11.81-1.22-.1a34.35,34.35,0,0,0-1.24,12.27l1.14,0.1ZM240,454.65c-1,.14-2.79-0.32-2.47,1.61,0.36,2.15,2.66,1.87,4.17,2.36s1.2-1,1.31-1.86C243.34,454.41,241.6,454.68,240,454.65Zm116.53-34.76-16.69-.05C345.08,420.9,350.3,421.57,356.54,419.89Zm-99.59-.41a28.49,28.49,0,0,0,15.82.05ZM363,368l1.24,0c-0.11-3.88,1.31-7.69.62-11.59l-1.12-.07Zm9.64,87.24c-1.07.35-3.16-.69-2.9,1.88,0.08,0.8-.35,2.39,1.26,1.91s4.06-.13,4.29-2.51C375.42,454.83,373.73,455.42,372.59,455.22Zm-122.4-86.07-0.94,0c-0.52,4.52.78,8.93,0.9,13.39ZM394.54,443l0.61-.11,0.05-17.52h-0.61ZM248.87,356.07c-0.57,3.9-.62,7.79.93,11.54C249.83,363.75,250.32,359.87,248.87,356.07Zm-3.68-23.6c0.46,3.12.79,5.37,1.13,7.63a1,1,0,0,0,.9,1,1.33,1.33,0,0,0,.85-0.5C247.37,338.06,248.8,334.92,245.19,332.47Zm127.57,72.76c-0.09-1.46-.72-1.82-1.75-1.46-1.23.42-2.77,0.57-2.45,2.5,0.16,0.93.66,1.84,1.57,1.61A3.3,3.3,0,0,0,372.76,405.23ZM362.89,383h0.33L364,369.61l-1,0Zm32.67-115c-2.83,1.63-1.9,3.78-1.72,5.68a0.75,0.75,0,0,0,1.2.36c1.41-1.14.4-2.7,0.61-4.06A12.63,12.63,0,0,0,395.56,268Zm-177.23-.89a13.38,13.38,0,0,0-.2,2.24c0.16,1.38-.75,2.92.52,4.11a0.78,0.78,0,0,0,1.23-.33c0.42-1.63.86-3.3-.28-4.85A12.75,12.75,0,0,0,218.33,267.13ZM218.2,426.77l-0.51,0,0,15.49h0.51Zm1.21,34.1a16.79,16.79,0,0,0-.89-9.08C218.48,454.54,217.46,457.4,219.41,460.87Z" transform="translate(-202.03 -133.62)"/><path class="cls-2" d="M324.22,378.61c-3.39-.63-4.14.88-4,4a167.93,167.93,0,0,0,2.69,21.68c-0.54,3.07,2.46,5.56,1.51,8.69a55.27,55.27,0,0,1-5.32-32.5c4.8-5.5.84-12,2.34-17.9,0.3,3.83.58,7.66,0.9,11.49C322.52,375.76,322.54,377.51,324.22,378.61Z" transform="translate(-202.03 -133.62)"/><path class="cls-3" d="M288.47,407c3.55-8.3,3.84-17.12,4.3-25.91,0.15-2.79-1.14-3.11-3.38-2.17,2.47-5.11,1.07-10.79,2.73-16.82,0.56,4.63-.59,8.43-0.58,12.27,0,1.41-.61,2.84,1.32,3.71,1.05,0.47,1,1.83,1.18,2.93a53.78,53.78,0,0,1-1.54,21,10.69,10.69,0,0,1-3.25,5Z" transform="translate(-202.03 -133.62)"/><path class="cls-4" d="M256.06,271.22c0.52-1.53,2.06-1.3,3.14-1.51,18.06-3.57,36.25-6.28,54.73-5.2,17.61,1,35.09,3.25,52,8.64a14.24,14.24,0,0,1,2,1c-6.69-1.23-13.17-3.32-19.84-4.68C317.21,263.14,286.58,264.14,256.06,271.22Z" transform="translate(-202.03 -133.62)"/><path class="cls-5" d="M373,277c4,0.95,5.14,4.24,4.47,7.26-3.23,14.66-6.27,29.39-10.92,43.72a4.08,4.08,0,0,1-.83,1.06c3.81-13.8,7.09-27.72,10.37-41.65C377.07,283.28,376.79,279.69,373,277Z" transform="translate(-202.03 -133.62)"/><path class="cls-6" d="M294.86,322.17c1.6-1.48,3.66-1.15,5.57-1.35s4,0.6,4.71-2.6c0.36-1.7,3.1-1.65,3.49.32,0.51,2.59,2.09,2.17,3.76,2.29,2.17,0.16,4.44-.1,6.3,1.41l0.07-.06-24-.08Z" transform="translate(-202.03 -133.62)"/><path class="cls-7" d="M243.32,313.35c-3.1-8.67-4.35-17.77-6.59-26.64-0.66-2.6-1.26-5.22.7-7.6-1.12,8.47,2.63,16.18,3.93,24.27C241.91,306.72,243.38,309.89,243.32,313.35Z" transform="translate(-202.03 -133.62)"/><path class="cls-8" d="M318.7,322.25c1.64,0.49,1.55,1.86,1.24,3-0.39,1.39-1.82,1-2.87,1-7,0-13.92,0-20.88-.06-1,0-2.22.24-2.52-1s-0.43-2.48,1.19-3l-0.07-.06c-0.51,2.15-.15,3.32,2.62,3.25,6.3-.16,12.61-0.16,18.9.07,2.91,0.11,3-1.21,2.46-3.24Z" transform="translate(-202.03 -133.62)"/><path class="cls-9" d="M289.79,336.72c2.24,3.47,1.92,7.54,2.36,11.47C290.81,344.51,291.13,340.5,289.79,336.72Z" transform="translate(-202.03 -133.62)"/><path class="cls-10" d="M341.71,149.67c-1.39-3.42-4.15-4.47-7.7-4.86-5.66-.62-11.27-1.7-16.9-2.58-2.68-.42-5.4-0.56-7.86-2a3.82,3.82,0,0,0-2.87-.34c-8.3,3.25-17.23,3.2-25.86,4.62-4.48.74-7.19,2.28-8,6.69a9.25,9.25,0,0,1-1.11,2.24c-0.27-2.53,1.59-4.5,2-7.07-3.51-.12-6.47,1.55-9.64,2.33-1.71-1.67-3.06.26-4.58,0.43,1.84-2.33,4.7-2.77,7.26-2.9,3.5-.18,6.74-0.3,9.26-3.12a4.19,4.19,0,0,1,2.36-1c10.15-1.58,20.27-3.72,30.6-3.44,9.55,0.26,19,2,28.34,3.73,2.43,0.44,3.44,3,5.62,3.87C339.35,146.74,342.65,148.72,341.71,149.67Z" transform="translate(-202.03 -133.62)"/><path class="cls-11" d="M270.31,157.39a627.66,627.66,0,0,0-17.2,80.07c-1.07,7.17-1.74,14.45-4.45,21.31,1.31-7.89,2.73-15.76,3.92-23.66,3.5-23.3,8.58-46.29,14.39-69.13C267.72,163,267.81,159.73,270.31,157.39Z" transform="translate(-202.03 -133.62)"/><path class="cls-12" d="M240.16,157.3c-0.75,1.4-3.54,1.94-2.51,3.92s3.11,0.52,4.74.48c-3.88,2.14-4.42,6.08-5.63,9.73-0.64,1.92-.67,4.08-2.08,5.74-0.44-3.29,2.7-6.17,1.13-9.59a14.16,14.16,0,0,0,.89-2.34c0.19-1,2.44-1.11,1.19-2.46-1-1.07-2.18-2.43-4-1.28C235.83,159.93,237.36,157.7,240.16,157.3Z" transform="translate(-202.03 -133.62)"/><path class="cls-13" d="M247.2,260.84c0.36,0.61-.55,2.22,1.44,1.56,1.73-.57,3.42-1.44,5.36-1.16l-10.6,4.07Z" transform="translate(-202.03 -133.62)"/><path class="cls-14" d="M231.88,529c-1.86.3-1.9,1.65-1.77,3,0.16,1.81.38,3.6,0.64,5.93,2.06-2,3.5-.93,4.79.67-1.21.18-1.2,0.84-.86,1.79,0.47,1.32,1.41,2.51,1.25,4-1.82-1.65-1.64-4.4-3.89-6.65-0.08,4.12.91,6.83,4.58,8.1l0.85,1.16-0.16,1.17-2.09-.52c-3.63-2.17-4.77-6.2-7.2-9.27,0.83-.07,2.22.92,1.9-1.17a47.57,47.57,0,0,1-.54-6.5C229.34,529.29,229.5,527.54,231.88,529Z" transform="translate(-202.03 -133.62)"/><path class="cls-15" d="M242.64,541.19a16,16,0,0,0-6.36-8.52c1.94-.22,2.62,2.12,4.45,2.18,1.71-3.79.69-8.4,3.85-11.67C242.79,529.06,241,534.94,242.64,541.19Z" transform="translate(-202.03 -133.62)"/><path class="cls-16" d="M372.32,536.05c-2.34,2-1.33,5.78-4.22,7.46,4.26-7.59,1-14.8-1.17-22.08-0.6-2-1.39-1.46-2.51-.44s-2.48,2-3.74,3a2.27,2.27,0,0,1,1.42-2c3.52-2.22,3.89-4.86,1.24-8,1.78,0.37,2,2,2.67,3.24,2.52,4.95,3.73,10.29,4.84,15.66C371.09,534.08,370.84,535.47,372.32,536.05Z" transform="translate(-202.03 -133.62)"/><path class="cls-17" d="M379.13,538.22c1.71,0.38,3,0,2.57-2s1.94-4.55-.86-6.31c1.66-.77,1.92-0.74,2.06.73a21.06,21.06,0,0,1-.32,5.78c-0.2,1.11-1.14,2.7.93,3.31-1.83,3.07-3.31,6.4-6.51,8.46l-2,.6-0.18-1.23,0.82-1.28C379.73,544.75,381.18,541.43,379.13,538.22Z" transform="translate(-202.03 -133.62)"/><path class="cls-18" d="M383.93,277.13h-1.6c0.21-1.78-.74-2.88-2.25-3.67a9,9,0,0,1-4.39-4.45h0c3.66-.11,4.52,3.75,7.36,5.06,0.33-.88.63-1.66,0.92-2.45,4.34-12,4-24.35,3.16-36.8-1.57-22.24-4.4-44.27-11-65.7,1.49,0.65,1.55,2.12,1.9,3.36a272.38,272.38,0,0,1,9,51.28c0.49,5.82.92,11.64,1.34,17.46a78.89,78.89,0,0,1-4,32A8.51,8.51,0,0,0,383.93,277.13Z" transform="translate(-202.03 -133.62)"/><path class="cls-19" d="M253.1,264.62c1.27-1.87,3.42-1.71,5.27-2.09,35.49-7.27,70.79-7.12,105.84,2.71a8.16,8.16,0,0,1,3.69,1.55c-6.81-1.3-13.33-3.66-20.19-4.82a239.45,239.45,0,0,0-57.89-3C277.4,259.89,265.12,261.42,253.1,264.62Z" transform="translate(-202.03 -133.62)"/><path class="cls-20" d="M382.41,277c-0.88,9.34-3.71,18.29-5.74,27.4-0.95,4.24-1.62,8.58-3.41,12.61,0.51-6.33,2.59-12.35,4-18.48C379,291.33,380.07,284,382.41,277Z" transform="translate(-202.03 -133.62)"/><path class="cls-21" d="M242.54,325c-3.17-8.07-4.45-16.62-6.54-25-0.74-2.93-1.8-5.84-1.65-8.93,2.73,7.69,3.85,15.76,5.9,23.61C241.13,318.14,242.51,321.45,242.54,325Z" transform="translate(-202.03 -133.62)"/><path class="cls-22" d="M380.51,162.54c-2.25-2-3.24.18-5,1.49l5.27,4.78-1.84.75a12.12,12.12,0,0,0-1.75-3.06c-1.5-1.43-.86.49-1.2,0.89-1.07-2-2-4.11-4.18-5.27,1.7-.1,4,1.56,5-0.57,0.86-1.89-1.69-2.57-2.72-3.81A9.33,9.33,0,0,1,380.51,162.54Z" transform="translate(-202.03 -133.62)"/><path class="cls-23" d="M359.17,541.57c0.43-10.87-.42-11.65-11.28-10-9,1.39-18,2-27,3-3.89.41-7.7,1.52-11.7,1.43-15.65-.33-31-3-46.48-5-2.86-.37-6.17-2.1-8.28.88s-2.12,6.4-.63,9.77c0.54,1.21,1,2.44,1.56,3.66-3.78-3.72-3.88-8.11-2.32-12.75a4.58,4.58,0,0,1,5.61-3.13c11.79,2.43,23.78,3.29,35.73,4.49,7,2.51,14.22.64,21.32,1.26l0-1.19-21.36-.07a2.72,2.72,0,0,1,2.37-.76c13.15,0.41,26.31.89,39.4-.87q7.75-1,15.47-2.22c5.83-.89,8.06.79,8.38,6.58C360.07,538.35,360.48,540.11,359.17,541.57Z" transform="translate(-202.03 -133.62)"/><path class="cls-24" d="M356.28,552.08c-6.62,3.67-14.05,4.54-21.35,5.52a200.15,200.15,0,0,1-68.86-2.25c-3.6-.77-7.26-1.58-10.45-3.59,7.21,1.74,14.3,3.89,21.71,4.87,23.73,3.15,47.33,2.95,70.76-2.34C350.84,553.68,353.54,552.83,356.28,552.08Z" transform="translate(-202.03 -133.62)"/><path class="cls-25" d="M259.36,549.58c15.59,5,31.66,6.74,48,6.7,14.43,0,28.69-1.48,42.58-5.57a6.57,6.57,0,0,1,1.47-.09c-6.38,3.39-13.53,3.91-20.46,4.85a175.75,175.75,0,0,1-64.08-2.86C264.18,552,261.51,551.39,259.36,549.58Z" transform="translate(-202.03 -133.62)"/><path class="cls-26" d="M353.16,558.94c1.36-.77,2.41-2,4-2.39,3.13-.79,4-2.86,3.19-5.79-1.15-.14-1.87.67-2.76,1a4.84,4.84,0,0,1,4.53-2.81c2.06,1.32,2.92-1.47,4.64-1.3-0.42,1.32-1.72,1.67-2.73,2.27-1.72,1-2.32,2.3-1.48,4.36a42,42,0,0,1,4.12-1.87c3.09-1,4.83-4.14,8.08-4.89L375,548.8c-4,3.91-9.25,5.7-14.41,7.59-0.54.2-1.41,0.21-1.16,1s1.26,0.28,1.88.5a9.21,9.21,0,0,0-5.17,4.14c0.35-1.87-.86-2-2.23-1.9Z" transform="translate(-202.03 -133.62)"/><path class="cls-27" d="M237.46,547.12c3.26,0.9,5.16,3.92,8.3,5,1.25,0.45,2.43,1.09,3.91,1.76,0.41-1.74.61-3.15-1.13-4.09a1.52,1.52,0,0,1-.72-2.13c2.15,1.61,5.34,1.13,7.17,3.38l-3.2-.66c-0.85,2.94,0,4.91,3.11,5.85a20.7,20.7,0,0,1,3.26,1.63l-3.33-.39-0.15.48,4.3,2.17c-3.31-.93-3.16.48-1.87,2.66a16.31,16.31,0,0,0-8.45-6l4.15,0.55c-5.11-3.22-11.26-4.54-15.52-9Z" transform="translate(-202.03 -133.62)"/><path class="cls-28" d="M353.16,558.94l0.72,1.2c-5.31,2.23-11,2.47-16.64,3.17a252.61,252.61,0,0,1-71.7-1.49,8.85,8.85,0,0,1-1.41-.47c0.71-.86.22-1.18-0.61-1.47-1.47-.5-2.92-1.06-4.38-1.6,8,1.45,16,3.52,24.14,4.21,22.38,1.9,44.66,2,66.62-3.54A4.4,4.4,0,0,1,353.16,558.94Z" transform="translate(-202.03 -133.62)"/><path class="cls-29" d="M235.15,170.45l-6.5,22.06C230,184.92,231.2,177.3,235.15,170.45Z" transform="translate(-202.03 -133.62)"/><path class="cls-30" d="M253.81,261.33c5.68-2.59,11.87-3.21,17.93-4.06,26.88-3.77,53.68-3.46,80.33,2.07a4,4,0,0,1,2.4.83c-7.9-.62-15.59-2.55-23.49-3.34a232.84,232.84,0,0,0-73.54,3.92C256.25,261,255,261.14,253.81,261.33Z" transform="translate(-202.03 -133.62)"/><path class="cls-31" d="M366.68,261.57c1.84,2.86,5.43,3.57,7.62,6l-14.74-6c2.07-.3,3.88.61,5.74,1.23C366.79,263.34,366.61,262.39,366.68,261.57Z" transform="translate(-202.03 -133.62)"/><path class="cls-32" d="M346,162.71c3,7.22,4,15,5.85,22.48,5.37,21.65,8.35,43.72,11.84,65.69a45.84,45.84,0,0,0,3.06,10.84c-2.41-1.64-2.59-4.33-3-6.73-2.49-14.49-4.7-29-7.26-43.52-2.7-15.31-6.32-30.43-10-45.55C346.31,164.87,346.22,163.78,346,162.71Z" transform="translate(-202.03 -133.62)"/><path class="cls-33" d="M303.75,147a3.54,3.54,0,0,1,7.07.13c0,1.81-1.11,3.5-3.16,3.2C305.93,150,303.5,149.83,303.75,147Z" transform="translate(-202.03 -133.62)"/><path class="cls-34" d="M341.6,149.53a37.15,37.15,0,0,1,4.54,13.36A76.4,76.4,0,0,1,341.6,149.53Z" transform="translate(-202.03 -133.62)"/></g><polygon class="cls-35" points="199.89 459.88 116.44 453.9 5.44 463.78 93.73 483.08 199.89 459.88"/><polyline class="cls-36" points="93.73 481.02 93.07 526.73 201.23 460.02"/></svg>